<?xml version="1.0" standalone="no"?>
<!DOCTYPE svg PUBLIC "-//W3C//DTD SVG 20010904//EN"
 "http://www.w3.org/TR/2001/REC-SVG-20010904/DTD/svg10.dtd">
<svg version="1.0" xmlns="http://www.w3.org/2000/svg"
 width="743.000000pt" height="743.000000pt" viewBox="0 0 743.000000 743.000000"
 preserveAspectRatio="xMidYMid meet">
<metadata>
Created by potrace 1.14, written by Peter Selinger 2001-2017
</metadata>
<g transform="translate(0.000000,743.000000) scale(0.100000,-0.100000)"
fill="#000000" stroke="none">
<path d="M3633 7410 c-39 -10 -86 -26 -103 -35 -26 -14 -34 -14 -48 -3 -15 12
-16 11 -3 -4 9 -12 10 -18 2 -18 -6 0 -20 -9 -31 -20 -12 -12 -25 -18 -30 -15
-6 4 -10 -1 -10 -9 0 -9 -7 -16 -16 -16 -8 0 -13 -4 -10 -9 7 -11 -22 -36 -31
-27 -3 3 -1 6 5 6 7 0 12 5 12 12 0 6 -8 4 -20 -7 -10 -9 -19 -20 -18 -24 2
-21 -4 -31 -14 -25 -10 6 -10 4 0 -7 17 -18 15 -29 -4 -29 -13 0 -14 -3 -5
-14 9 -11 9 -16 0 -22 -8 -4 -9 -3 -5 4 4 7 2 12 -3 12 -12 0 -14 -13 -4 -24
4 -3 7 -15 8 -26 1 -17 -1 -18 -14 -7 -14 10 -14 10 -3 -5 8 -10 10 -23 6 -30
-6 -10 -5 -11 7 -1 12 10 15 8 15 -7 0 -17 -7 -19 -41 -17 -22 1 -43 6 -47 12
-5 6 -8 5 -8 -2 0 -7 -4 -13 -9 -13 -6 0 -8 9 -6 20 2 11 -1 20 -6 20 -5 0 -9
-8 -7 -17 2 -10 -5 -19 -16 -21 -13 -3 -16 0 -11 10 6 10 5 11 -6 1 -16 -16
-33 -17 -23 -1 5 7 3 8 -7 2 -22 -14 -90 -15 -83 -1 5 8 2 8 -7 0 -7 -7 -17
-13 -22 -13 -4 0 -5 6 -1 13 5 8 2 8 -9 -2 -14 -11 -17 -11 -17 0 0 9 -3 10
-8 3 -4 -7 -38 -11 -85 -10 -42 1 -77 -2 -77 -5 0 -3 -6 -6 -12 -6 -7 0 -36
-7 -65 -16 -28 -8 -55 -12 -59 -9 -4 4 -4 2 0 -5 6 -11 -20 -26 -36 -20 -4 1
-15 -8 -23 -20 -19 -27 -70 -64 -93 -68 -9 -1 -25 4 -35 13 -9 8 -20 12 -24 9
-3 -4 -1 -7 5 -7 7 0 12 -3 12 -7 0 -5 -32 -8 -70 -8 -39 0 -70 4 -70 8 0 5
-5 5 -11 2 -15 -10 -149 -11 -149 -2 0 5 -5 5 -11 1 -17 -10 -149 -10 -149 1
0 5 -4 5 -10 -1 -6 -6 -31 -8 -60 -4 -28 4 -50 4 -50 0 0 -3 -27 -5 -60 -5
-33 0 -60 4 -60 8 0 5 -5 5 -11 1 -6 -4 -35 -7 -63 -6 -73 0 -78 1 -71 11 3 5
1 13 -5 16 -6 4 -10 3 -9 -2 5 -29 -18 -38 -49 -19 -6 4 -12 4 -12 -1 0 -16
-60 -9 -60 7 -1 11 -3 11 -11 -3 -10 -18 -11 -18 -25 0 -13 16 -13 16 -8 1 3
-10 1 -18 -5 -18 -6 0 -11 5 -11 11 0 8 -4 8 -13 1 -10 -9 -19 -7 -35 4 -17
12 -21 12 -16 1 3 -8 -1 -14 -10 -14 -8 0 -12 5 -9 11 4 6 0 5 -9 -2 -9 -7
-20 -12 -24 -11 -5 1 -22 -3 -37 -9 -16 -7 -33 -9 -39 -6 -7 5 -8 2 -3 -6 6
-10 4 -12 -9 -7 -9 4 -14 3 -11 -2 7 -12 -7 -21 -38 -23 -14 -1 -23 -6 -21
-10 3 -5 10 -6 16 -2 5 3 2 -8 -6 -25 -19 -35 -32 -43 -16 -8 11 21 10 21 -4
3 -14 -18 -16 -359 -16 -3359 0 -3171 1 -3340 17 -3354 12 -9 13 -12 3 -8 -10
4 -9 2 2 -8 10 -8 14 -18 10 -22 -4 -5 -1 -4 7 0 10 6 13 4 9 -7 -4 -8 0 -15
8 -15 7 0 11 4 8 9 -3 4 0 8 5 8 6 0 11 -7 11 -16 0 -11 6 -15 20 -11 11 3 18
1 14 -4 -3 -5 981 -9 2441 -9 1520 0 2444 4 2440 10 -3 5 5 14 17 21 13 7 34
24 47 38 14 14 28 25 33 24 4 -2 5 3 2 11 -3 7 2 16 10 19 14 6 16 333 16
3342 l0 3335 -23 0 c-20 1 -20 2 -4 11 9 6 15 15 11 20 -4 6 -11 6 -19 -1 -10
-9 -16 -6 -25 10 -6 11 -15 18 -19 16 -5 -3 -17 4 -27 16 -11 12 -13 18 -6 14
6 -4 12 -2 12 3 0 14 -13 14 -27 0 -8 -8 -17 -8 -33 1 -12 7 -35 10 -51 8 -16
-3 -29 -1 -29 4 0 5 -5 6 -11 2 -17 -10 -149 -10 -149 1 0 5 -4 5 -10 -1 -6
-6 -31 -8 -60 -4 -28 4 -50 4 -50 0 0 -3 -27 -5 -60 -5 -33 0 -60 4 -60 8 0 5
-5 5 -11 1 -6 -4 -35 -7 -63 -6 -73 0 -78 1 -71 11 3 5 1 13 -5 16 -6 4 -10 3
-9 -2 5 -29 -18 -38 -49 -19 -6 4 -12 4 -12 -1 0 -16 -60 -9 -60 7 -1 11 -3
11 -11 -3 -10 -18 -11 -18 -25 0 -13 16 -13 16 -8 1 7 -20 -12 -25 -19 -5 -4
8 -8 9 -14 2 -9 -12 -123 -14 -123 -2 0 5 -5 5 -12 1 -7 -4 -33 -7 -58 -5 -34
2 -52 9 -74 30 -21 21 -25 31 -16 36 9 6 11 4 5 -5 -6 -9 -4 -11 5 -5 9 6 11
4 5 -5 -6 -9 -4 -11 5 -5 9 6 11 4 5 -5 -6 -9 -4 -11 5 -5 9 6 11 4 5 -5 -6
-9 -4 -11 5 -5 8 5 11 4 7 -2 -3 -5 1 -10 9 -10 10 0 4 12 -17 33 -18 18 -37
32 -43 31 -6 -1 -10 3 -9 10 2 7 -4 10 -13 6 -12 -5 -13 -7 -3 -14 8 -4 11
-10 8 -13 -2 -3 -16 5 -30 17 -14 12 -20 18 -13 14 7 -5 15 -3 20 4 4 7 3 9
-4 5 -5 -3 -12 0 -15 6 -3 10 -7 10 -19 1 -8 -7 -18 -10 -22 -6 -3 4 -16 8
-28 10 -12 2 -26 7 -32 12 -6 4 -33 9 -61 10 -27 2 -51 7 -53 12 -2 5 -8 9
-13 9 -6 0 -7 -4 -4 -10 3 -5 2 -10 -4 -10 -5 0 -12 6 -14 13 -4 10 -6 10 -6
0 -1 -7 -10 -13 -21 -13 -11 0 -20 6 -20 13 0 8 -2 9 -8 1 -9 -14 -94 -13
-104 1 -5 6 -8 6 -8 -2 0 -8 -19 -11 -55 -11 -35 1 -52 5 -48 12 3 6 0 5 -8
-1 -7 -7 -17 -13 -22 -13 -4 0 -5 6 -1 13 5 8 2 8 -9 -2 -14 -11 -17 -11 -17
0 0 11 -2 11 -9 1 -8 -14 -55 -12 -68 3 -4 4 -2 5 5 1 6 -4 12 -3 12 1 0 5 -6
15 -12 22 -10 11 -10 13 0 7 6 -4 12 -2 12 3 0 6 -4 11 -8 11 -5 0 -9 7 -9 15
0 13 4 12 21 -2 19 -17 20 -17 7 -1 -7 10 -10 25 -7 34 5 14 4 15 -9 4 -20
-16 -19 -6 1 14 9 9 11 16 4 16 -6 0 -8 5 -4 12 5 8 2 9 -9 5 -21 -8 -33 11
-18 26 9 9 11 8 6 -5 -4 -10 -5 -18 -2 -18 3 0 8 7 11 15 4 10 -3 20 -19 27
-14 6 -25 18 -25 25 0 8 -5 11 -12 7 -6 -4 -8 -3 -5 4 9 14 -3 43 -14 36 -5
-3 -9 3 -10 13 -1 13 -3 11 -9 -7 -8 -24 -8 -24 -9 -2 -1 12 -5 22 -11 22 -5
0 -10 7 -10 15 0 11 -5 12 -25 5 -19 -7 -23 -6 -18 5 3 8 10 12 16 8 6 -3 7
-1 3 6 -6 9 -11 9 -22 0 -21 -18 -47 -3 -39 22 5 15 4 19 -4 15 -6 -4 -11 -14
-11 -22 0 -8 -5 -12 -10 -9 -6 4 -8 10 -5 15 6 10 -23 35 -32 26 -3 -3 -1 -6
6 -6 7 0 9 -5 5 -12 -5 -7 -3 -8 6 -3 9 5 11 4 6 -3 -10 -16 -12 -15 -37 11
-12 12 -19 16 -15 10 5 -8 1 -13 -9 -13 -9 0 -14 3 -12 8 3 4 -52 8 -121 9
-96 1 -144 -3 -199 -17z m647 -234 c0 -3 -4 -8 -10 -11 -5 -3 -10 -1 -10 4 0
6 5 11 10 11 6 0 10 -2 10 -4z m-2650 -730 c0 4 7 -1 15 -12 13 -18 14 -18 8
6 -5 24 -5 25 10 5 9 -11 17 -15 17 -7 0 17 20 15 41 -4 16 -15 17 -14 12 8
-5 23 -5 23 10 3 9 -11 17 -15 17 -7 0 17 20 15 41 -4 16 -15 17 -14 12 8 -5
23 -5 23 10 3 9 -11 17 -15 17 -7 0 17 20 15 41 -4 16 -15 17 -14 12 8 l-6 23
22 -25 c15 -16 21 -19 17 -8 -3 12 0 16 15 13 10 -2 19 2 19 8 0 8 3 8 8 2 8
-12 160 -13 179 -2 6 4 14 3 17 -2 7 -10 25 -9 43 2 6 4 14 4 17 -1 6 -10 147
-9 163 1 6 4 14 3 18 -3 4 -6 10 -8 14 -6 4 3 13 1 21 -4 10 -6 2 -8 -23 -6
-21 2 -35 1 -32 -3 4 -3 15 -7 26 -7 10 -1 23 -2 27 -3 9 -1 35 -48 36 -65 1
-5 10 -12 21 -17 11 -4 14 -8 7 -8 -10 -1 -10 -4 2 -16 8 -8 19 -15 25 -15 5
0 8 -9 6 -20 -2 -11 0 -18 5 -15 16 10 39 -7 35 -26 -2 -11 0 -17 5 -14 5 3
11 1 15 -5 3 -5 15 -15 27 -21 11 -6 18 -7 15 -2 -3 5 3 9 13 9 15 0 17 -3 7
-15 -10 -12 -7 -13 23 -8 19 4 31 4 25 -1 -5 -4 -11 -13 -13 -20 -2 -10 2 -10
18 -2 15 8 20 8 20 -1 0 -8 4 -8 13 -1 10 9 17 6 29 -8 17 -19 64 -17 52 2 -4
6 1 6 13 -1 14 -7 24 -7 33 2 10 9 11 9 6 -1 -6 -9 -1 -11 18 -8 14 3 30 7 35
10 5 4 12 2 16 -3 7 -12 45 -10 45 2 0 4 5 5 11 1 8 -4 7 -9 -2 -15 -7 -4 -17
-5 -21 -3 -4 3 -8 0 -8 -5 0 -13 10 -14 30 -1 9 6 20 5 30 -3 13 -10 13 -10 2
5 -10 12 -10 18 -1 24 7 4 9 3 5 -4 -4 -7 1 -10 14 -9 11 1 20 5 20 10 0 4 5
5 11 1 8 -4 7 -9 -2 -15 -7 -4 -17 -5 -21 -3 -4 3 -8 0 -8 -5 0 -13 10 -14 30
-1 9 6 20 5 30 -3 13 -10 13 -10 2 5 -10 12 -10 18 -1 24 7 4 9 3 5 -4 -4 -7
1 -10 14 -9 11 1 20 5 20 10 0 4 5 5 11 1 8 -4 7 -9 -2 -15 -7 -4 -17 -5 -21
-3 -4 3 -8 0 -8 -5 0 -13 10 -14 30 -1 9 6 20 5 30 -3 13 -10 13 -10 2 5 -10
12 -10 18 -1 24 7 4 9 3 5 -4 -4 -7 1 -10 14 -9 11 1 20 5 20 10 0 4 5 5 11 1
8 -4 7 -9 -2 -15 -7 -4 -17 -5 -21 -3 -4 3 -8 0 -8 -5 0 -13 10 -14 30 -1 9 6
20 5 30 -3 13 -10 13 -10 2 5 -10 12 -10 18 -1 24 7 4 9 3 5 -4 -4 -7 1 -10
14 -9 11 1 20 5 20 10 0 4 5 5 11 1 8 -4 7 -9 -2 -15 -7 -4 -17 -5 -21 -3 -4
3 -8 0 -8 -5 0 -13 10 -14 30 -1 9 6 20 5 30 -3 13 -10 13 -10 2 5 -10 12 -10
18 -1 24 7 4 9 3 5 -4 -4 -7 1 -10 14 -9 11 1 20 5 20 10 0 4 5 5 11 1 8 -4 7
-9 -2 -15 -7 -4 -17 -5 -21 -3 -4 3 -8 0 -8 -5 0 -13 10 -14 30 -1 9 6 20 5
30 -3 13 -10 13 -10 2 5 -10 12 -10 18 -1 24 7 4 9 3 5 -4 -4 -7 1 -10 14 -9
11 1 20 5 20 10 0 4 5 5 11 1 8 -4 7 -9 -2 -15 -7 -4 -17 -5 -21 -3 -4 3 -8 0
-8 -5 0 -13 10 -14 30 -1 9 6 20 5 30 -3 13 -10 13 -10 2 5 -10 12 -10 18 -1
24 7 4 9 3 5 -4 -4 -7 1 -10 14 -9 11 1 20 5 20 10 0 4 5 5 11 1 8 -4 7 -9 -2
-15 -7 -4 -17 -5 -21 -3 -4 3 -8 0 -8 -5 0 -13 10 -14 30 -1 9 6 20 5 30 -3
13 -10 13 -10 2 5 -10 12 -10 18 -1 24 7 4 9 3 5 -4 -4 -7 1 -10 14 -9 11 1
20 5 20 10 0 4 5 5 11 1 8 -4 7 -9 -2 -15 -7 -4 -17 -5 -21 -3 -4 3 -8 0 -8
-5 0 -13 10 -14 30 -1 9 6 20 5 30 -3 13 -10 13 -10 2 5 -10 12 -10 18 -1 24
7 4 9 3 5 -4 -4 -7 1 -10 14 -9 11 1 20 5 20 10 0 4 5 5 11 1 8 -4 7 -9 -2
-15 -7 -4 -17 -5 -21 -3 -4 3 -8 0 -8 -5 0 -13 10 -14 30 -1 9 6 20 5 30 -3
13 -10 13 -10 2 5 -10 12 -10 18 -1 24 7 4 9 3 5 -4 -4 -7 1 -10 14 -9 11 1
20 5 20 10 0 4 5 5 11 1 8 -4 7 -9 -2 -15 -7 -4 -17 -5 -21 -3 -4 3 -8 0 -8
-5 0 -13 10 -14 30 -1 9 5 19 5 26 -1 8 -7 15 -6 20 2 5 8 3 9 -6 4 -9 -6 -11
-4 -5 5 6 9 4 11 -5 5 -9 -5 -11 -4 -6 4 6 9 11 9 21 1 19 -15 53 -21 61 -9 4
6 11 6 20 -2 11 -9 14 -8 15 7 0 16 2 16 9 -3 11 -27 22 -31 13 -5 -6 15 -4
15 16 -2 17 -16 20 -16 16 -4 -4 9 -1 19 6 24 8 5 10 3 4 -6 -6 -10 -3 -12 13
-8 12 4 20 2 17 -2 -3 -5 -1 -11 5 -15 5 -3 10 1 10 9 0 8 5 18 12 22 7 4 8 3
4 -4 -4 -7 -2 -12 4 -12 6 0 9 -4 6 -8 -3 -5 1 -9 8 -9 9 0 12 7 8 16 -5 14
-4 14 12 1 25 -20 46 -22 39 -3 -5 13 -3 13 15 4 19 -10 22 -9 23 6 0 14 2 13
9 -4 11 -27 22 -31 13 -5 -6 15 -4 15 16 -2 17 -16 20 -16 16 -4 -4 9 -1 19 6
24 8 5 10 3 4 -6 -6 -10 -3 -12 13 -8 12 4 20 2 17 -2 -3 -5 -1 -11 5 -15 5
-3 10 1 10 9 0 8 5 18 12 22 7 4 8 3 4 -4 -4 -7 -2 -12 4 -12 6 0 9 -4 6 -8
-3 -5 1 -9 8 -9 9 0 12 7 8 16 -5 14 -4 14 12 1 25 -20 46 -22 39 -3 -5 13 -3
13 15 4 19 -10 22 -9 23 6 0 14 2 13 9 -4 11 -27 22 -31 13 -5 -6 15 -4 15 16
-2 17 -16 20 -16 16 -4 -4 9 -1 19 6 24 8 5 10 3 4 -6 -6 -10 -3 -12 13 -8 12
4 20 2 17 -2 -3 -5 -1 -11 5 -15 5 -3 10 1 10 9 0 8 5 18 12 22 7 4 8 3 4 -4
-4 -7 -2 -12 4 -12 6 0 9 -4 6 -8 -3 -5 1 -9 8 -9 9 0 12 7 8 16 -5 14 -4 14
12 1 25 -20 46 -22 39 -3 -5 13 -3 13 15 4 19 -10 22 -9 23 6 0 14 2 13 9 -4
11 -27 22 -31 13 -5 -6 15 -3 14 17 -3 13 -11 20 -15 16 -8 -4 7 1 16 11 22
29 15 37 14 44 -6 7 -17 8 -17 8 1 1 20 1 20 16 0 13 -18 14 -18 8 5 -4 17 -3
22 5 17 6 -4 24 0 40 8 16 8 32 12 36 9 3 -4 6 -1 6 6 0 8 6 11 17 7 10 -4 14
-4 11 0 -4 4 13 20 38 37 25 16 62 49 81 73 20 24 41 40 46 37 6 -3 7 -1 4 4
-4 6 3 32 16 57 21 43 24 46 54 40 18 -3 41 -3 50 1 28 12 44 14 38 5 -3 -5
-1 -11 5 -15 5 -3 10 0 10 7 0 9 3 9 10 -2 6 -10 10 -11 10 -3 0 14 26 13 49
-1 8 -6 12 -5 8 0 -3 5 14 10 39 10 24 1 41 -2 39 -7 -3 -4 -1 -10 4 -13 5 -4
13 -1 17 5 5 8 3 9 -6 4 -9 -5 -11 -4 -6 3 10 17 36 15 57 -4 16 -15 17 -14
12 8 -5 23 -5 23 10 3 9 -11 17 -15 17 -7 0 17 20 15 41 -4 16 -15 17 -14 12
8 -5 23 -5 23 10 3 9 -11 17 -15 17 -7 0 17 20 15 41 -4 16 -15 17 -14 12 8
-5 23 -5 23 10 3 9 -11 17 -15 17 -7 0 17 20 15 41 -4 16 -15 17 -14 13 8 -5
20 -4 21 6 6 6 -10 16 -18 21 -18 6 0 8 4 5 8 -2 4 5 9 17 9 18 2 19 0 7 -8
-12 -9 -10 -10 7 -6 13 3 26 0 30 -5 3 -6 2 -9 -3 -6 -5 3 -18 2 -29 -3 -19
-8 -19 -8 2 -15 13 -3 20 -10 17 -15 -3 -5 -8 -7 -12 -5 -4 2 -7 -16 -8 -40 0
-24 3 -44 8 -44 5 0 6 5 2 12 -5 7 -3 8 6 3 10 -6 9 -11 -5 -22 -11 -7 -14
-13 -8 -13 6 0 13 -7 16 -14 4 -11 1 -13 -11 -9 -15 6 -16 5 -2 -12 9 -11 10
-16 3 -11 -7 4 -13 2 -13 -3 0 -10 14 -15 33 -12 5 1 6 -3 2 -8 -3 -6 -11 -8
-18 -5 -9 3 -13 -4 -13 -21 0 -16 6 -25 16 -26 10 0 9 -3 -5 -9 -14 -6 -16 -9
-5 -10 8 -2 19 -2 23 -1 5 1 6 -3 2 -8 -3 -6 -11 -8 -18 -5 -9 3 -13 -4 -13
-21 0 -14 6 -25 12 -25 7 0 15 -4 18 -9 3 -5 -2 -8 -11 -7 -14 1 -18 -8 -18
-42 -1 -35 2 -42 14 -37 11 3 9 0 -3 -10 -11 -8 -15 -15 -9 -15 6 0 13 -7 16
-14 4 -11 1 -13 -11 -9 -15 6 -16 5 -2 -12 9 -11 10 -16 3 -11 -7 4 -13 2 -13
-3 0 -10 14 -15 33 -12 5 1 6 -3 2 -8 -3 -6 -11 -8 -18 -5 -9 3 -13 -4 -13
-21 0 -14 6 -25 12 -25 7 0 15 -4 18 -9 3 -5 -2 -8 -11 -7 -14 1 -18 -8 -18
-42 -1 -35 2 -42 14 -37 11 3 9 0 -3 -10 -11 -8 -15 -15 -9 -15 6 0 13 -7 16
-14 4 -11 1 -13 -11 -9 -15 6 -16 5 -2 -12 9 -11 10 -16 3 -11 -7 4 -13 2 -13
-3 0 -10 14 -15 33 -12 5 1 6 -3 2 -8 -3 -6 -11 -8 -18 -5 -9 3 -13 -4 -13
-21 0 -14 6 -25 12 -25 7 0 15 -4 18 -9 3 -5 -2 -8 -11 -7 -14 1 -18 -8 -18
-42 -1 -35 2 -42 14 -37 11 3 9 0 -3 -10 -11 -8 -15 -15 -9 -15 6 0 13 -7 16
-14 4 -11 1 -13 -11 -9 -15 6 -16 5 -2 -12 9 -11 10 -16 3 -11 -7 4 -13 2 -13
-3 0 -10 14 -15 33 -12 5 1 6 -3 2 -8 -3 -6 -11 -8 -18 -5 -9 3 -13 -4 -13
-21 0 -14 6 -25 12 -25 7 0 15 -4 18 -9 3 -5 -2 -8 -11 -7 -14 1 -18 -8 -18
-42 -1 -35 2 -42 14 -37 11 3 9 0 -3 -10 -11 -8 -15 -15 -9 -15 6 0 13 -7 16
-14 4 -11 1 -13 -11 -9 -15 6 -16 5 -2 -12 9 -11 10 -16 3 -11 -7 4 -13 2 -13
-3 0 -10 14 -15 33 -12 5 1 6 -3 2 -8 -3 -6 -11 -8 -18 -5 -9 3 -13 -4 -13
-21 0 -14 6 -25 12 -25 7 0 15 -4 18 -9 3 -5 -2 -8 -11 -7 -14 1 -18 -8 -18
-42 -1 -35 2 -42 14 -37 11 3 9 0 -3 -10 -11 -8 -15 -15 -9 -15 6 0 13 -7 16
-14 4 -11 1 -13 -11 -9 -15 6 -16 5 -2 -12 9 -11 10 -16 3 -11 -7 4 -13 2 -13
-3 0 -10 14 -15 33 -12 5 1 6 -3 2 -8 -3 -6 -11 -8 -18 -5 -9 3 -13 -4 -13
-21 0 -16 6 -25 16 -26 10 0 9 -3 -5 -9 -14 -6 -16 -9 -5 -10 8 -2 19 -2 23
-1 5 1 6 -3 2 -8 -3 -6 -11 -8 -18 -5 -9 3 -13 -4 -13 -21 0 -14 6 -25 12 -25
7 0 15 -4 18 -9 3 -5 -2 -8 -11 -7 -14 1 -18 -8 -18 -42 -1 -35 2 -42 14 -37
11 3 9 0 -3 -10 -11 -8 -15 -15 -9 -15 6 0 13 -7 16 -14 4 -11 1 -13 -11 -9
-15 6 -16 5 -2 -12 9 -11 10 -16 3 -11 -7 4 -13 2 -13 -3 0 -10 14 -15 33 -12
5 1 6 -3 2 -8 -3 -6 -11 -8 -18 -5 -9 3 -13 -4 -13 -21 0 -14 6 -25 12 -25 7
0 15 -4 18 -9 3 -5 -2 -8 -11 -7 -14 1 -18 -8 -18 -42 -1 -35 2 -42 14 -37 11
3 9 0 -3 -10 -11 -8 -15 -15 -9 -15 6 0 13 -7 16 -14 4 -11 1 -13 -11 -9 -15
6 -16 5 -2 -12 9 -11 10 -16 3 -11 -7 4 -13 2 -13 -3 0 -10 14 -15 33 -12 5 1
6 -3 2 -8 -3 -6 -11 -8 -18 -5 -9 3 -13 -4 -13 -21 0 -14 6 -25 12 -25 7 0 15
-4 18 -9 3 -5 -2 -8 -11 -7 -14 1 -18 -8 -18 -42 -1 -35 2 -42 14 -37 11 3 9
0 -3 -10 -11 -8 -15 -15 -9 -15 6 0 13 -7 16 -14 4 -11 1 -13 -11 -9 -15 6
-16 5 -2 -12 9 -11 10 -16 3 -11 -7 4 -13 2 -13 -3 0 -10 14 -15 33 -12 5 1 6
-3 2 -8 -3 -6 -11 -8 -18 -5 -9 3 -13 -4 -13 -21 0 -14 6 -25 12 -25 7 0 15
-4 18 -9 3 -5 -2 -8 -11 -7 -14 1 -18 -8 -18 -42 -1 -35 2 -42 14 -37 11 3 9
0 -3 -10 -11 -8 -15 -15 -9 -15 6 0 13 -7 16 -14 4 -11 1 -13 -11 -9 -15 6
-16 5 -2 -12 9 -11 10 -16 3 -11 -7 4 -13 2 -13 -3 0 -10 14 -15 33 -12 5 1 6
-3 2 -8 -3 -6 -11 -8 -18 -5 -9 3 -13 -4 -13 -21 0 -14 6 -25 12 -25 7 0 15
-4 18 -9 3 -5 -2 -8 -11 -7 -14 1 -18 -8 -18 -42 -1 -35 2 -42 14 -37 11 3 9
0 -3 -10 -11 -8 -15 -15 -9 -15 6 0 13 -7 16 -14 4 -11 1 -13 -11 -9 -15 6
-16 5 -2 -12 9 -11 10 -16 3 -11 -7 4 -13 2 -13 -3 0 -10 14 -15 33 -12 5 1 6
-3 2 -8 -3 -6 -11 -8 -18 -5 -9 3 -13 -4 -13 -21 0 -16 6 -25 16 -26 10 0 9
-3 -5 -9 -14 -6 -16 -9 -5 -10 8 -2 19 -2 23 -1 5 1 6 -3 2 -8 -3 -6 -11 -8
-18 -5 -9 3 -13 -4 -13 -21 0 -14 6 -25 12 -25 7 0 15 -4 18 -9 3 -5 -2 -8
-11 -7 -14 1 -18 -8 -18 -42 -1 -35 2 -42 14 -37 11 3 9 0 -3 -10 -11 -8 -15
-15 -9 -15 6 0 13 -7 16 -14 4 -11 1 -13 -11 -9 -15 6 -16 5 -2 -12 9 -11 10
-16 3 -11 -7 4 -13 2 -13 -3 0 -10 14 -15 33 -12 5 1 6 -3 2 -8 -3 -6 -11 -8
-18 -5 -9 3 -13 -4 -13 -21 0 -14 6 -25 12 -25 7 0 15 -4 18 -9 3 -5 -2 -8
-11 -7 -14 1 -18 -8 -18 -42 -1 -35 2 -42 14 -37 11 3 9 0 -3 -10 -11 -8 -15
-15 -9 -15 6 0 13 -7 16 -14 4 -11 1 -13 -11 -9 -15 6 -16 5 -2 -12 9 -11 10
-16 3 -11 -7 4 -13 2 -13 -3 0 -10 14 -15 33 -12 5 1 6 -3 2 -8 -3 -6 -11 -8
-18 -5 -9 3 -13 -4 -13 -21 0 -14 6 -25 12 -25 7 0 15 -4 18 -9 3 -5 -2 -8
-11 -7 -14 1 -18 -8 -18 -42 -1 -35 2 -42 14 -37 11 3 9 0 -3 -10 -11 -8 -15
-15 -9 -15 6 0 13 -7 16 -14 4 -11 1 -13 -11 -9 -15 6 -16 5 -2 -12 9 -11 10
-16 3 -11 -7 4 -13 2 -13 -3 0 -10 14 -15 33 -12 5 1 6 -3 2 -8 -3 -6 -11 -8
-18 -5 -9 3 -13 -4 -13 -21 0 -14 6 -25 12 -25 7 0 15 -4 18 -9 3 -5 -2 -8
-11 -7 -14 1 -18 -8 -18 -42 -1 -35 2 -42 14 -37 11 3 9 0 -3 -10 -11 -8 -15
-15 -9 -15 6 0 13 -7 16 -14 4 -11 1 -13 -11 -9 -15 6 -16 5 -2 -12 9 -11 10
-16 3 -11 -7 4 -13 2 -13 -3 0 -10 14 -15 33 -12 5 1 6 -3 2 -8 -3 -6 -11 -8
-18 -5 -9 3 -13 -4 -13 -21 0 -14 6 -25 12 -25 7 0 15 -4 18 -9 3 -5 -2 -8
-11 -7 -14 1 -18 -8 -18 -42 -1 -35 2 -42 14 -37 11 3 9 0 -3 -10 -11 -8 -15
-15 -9 -15 6 0 13 -7 16 -14 4 -11 1 -13 -11 -9 -15 6 -16 5 -2 -12 9 -11 10
-16 3 -11 -7 4 -13 2 -13 -3 0 -10 14 -15 33 -12 5 1 6 -3 2 -8 -3 -6 -12 -8
-19 -5 -19 7 -15 -39 4 -48 13 -6 13 -7 0 -7 -10 -1 -16 -10 -16 -26 0 -19 4
-24 15 -20 10 3 9 0 -3 -10 -11 -8 -14 -15 -7 -15 7 0 9 -5 4 -12 -11 -19 -13
-39 -2 -32 5 3 9 0 9 -5 0 -6 -3 -11 -7 -11 -5 0 -8 -18 -8 -40 -1 -32 2 -39
15 -35 9 3 8 -1 -4 -10 -11 -8 -14 -15 -7 -15 7 0 9 -5 4 -12 -11 -19 -13 -39
-2 -32 5 3 9 0 9 -5 0 -6 -3 -11 -7 -11 -5 0 -8 -18 -8 -40 -1 -32 2 -39 15
-35 9 3 8 -1 -4 -10 -11 -8 -14 -15 -7 -15 7 0 9 -5 4 -13 -11 -18 -13 -38 -2
-31 5 3 9 0 9 -5 0 -6 -3 -11 -7 -11 -5 0 -8 -18 -8 -40 -1 -32 2 -39 15 -35
9 3 8 -1 -4 -10 -11 -8 -14 -15 -7 -15 7 0 9 -5 4 -12 -11 -19 -13 -39 -2 -32
5 3 9 0 9 -5 0 -6 -4 -11 -8 -11 -4 0 -8 -9 -8 -20 0 -19 9 -25 29 -21 5 1 6
-3 2 -8 -3 -6 -11 -8 -18 -5 -9 3 -13 -4 -13 -21 0 -14 6 -25 12 -25 7 0 15
-4 18 -9 3 -5 -2 -8 -11 -7 -14 1 -18 -8 -18 -42 -1 -35 2 -42 14 -37 11 3 9
0 -3 -10 -11 -8 -15 -15 -9 -15 6 0 13 -7 16 -14 4 -11 1 -13 -11 -9 -15 6
-16 5 -2 -12 9 -11 10 -16 3 -11 -7 4 -13 2 -13 -3 0 -10 14 -15 33 -12 5 1 6
-3 2 -8 -3 -6 -11 -8 -18 -5 -9 3 -13 -4 -13 -21 0 -14 6 -25 12 -25 7 0 15
-4 18 -9 3 -5 -2 -8 -11 -7 -14 1 -18 -8 -18 -42 -1 -35 2 -42 14 -37 11 3 9
0 -3 -10 -11 -8 -15 -15 -9 -15 6 0 13 -7 16 -14 4 -11 1 -13 -11 -9 -15 6
-16 5 -2 -12 9 -11 10 -16 3 -11 -7 4 -13 2 -13 -3 0 -10 14 -15 33 -12 5 1 6
-3 2 -8 -3 -6 -11 -8 -18 -5 -9 3 -13 -4 -13 -21 0 -14 6 -25 12 -25 7 0 15
-4 18 -9 3 -5 -2 -8 -11 -7 -14 1 -18 -8 -18 -42 -1 -35 2 -42 14 -37 11 3 9
0 -3 -10 -11 -8 -15 -15 -9 -15 6 0 13 -7 16 -14 4 -11 1 -13 -11 -9 -15 6
-16 5 -2 -12 9 -11 10 -16 3 -11 -7 4 -13 2 -13 -3 0 -10 14 -15 33 -12 5 1 6
-3 2 -8 -3 -6 -11 -8 -18 -5 -9 3 -13 -4 -13 -21 0 -14 6 -25 12 -25 7 0 15
-4 18 -9 3 -5 -2 -8 -11 -7 -14 1 -18 -8 -18 -42 -1 -35 2 -42 14 -37 11 3 9
0 -3 -10 -11 -8 -15 -15 -9 -15 6 0 13 -7 16 -14 4 -11 1 -13 -11 -9 -15 6
-16 5 -2 -12 9 -11 10 -16 3 -11 -7 4 -13 2 -13 -3 0 -10 14 -15 33 -12 5 1 6
-3 2 -8 -3 -6 -11 -8 -18 -5 -9 3 -13 -4 -13 -21 0 -14 6 -25 12 -25 7 0 15
-4 18 -9 3 -5 -2 -8 -11 -7 -13 1 -18 -7 -19 -29 0 -16 4 -36 9 -42 5 -8 6
-13 0 -13 -5 0 -9 -9 -9 -20 0 -11 3 -20 7 -20 4 0 9 -7 12 -14 4 -11 1 -13
-10 -9 -11 4 -14 2 -9 -5 4 -7 14 -12 22 -12 8 0 14 -4 14 -10 0 -6 -752 -9
-2109 -10 -1965 0 -2110 1 -2122 17 -10 12 -10 14 -1 9 6 -4 12 -2 12 3 0 6
-6 11 -12 12 -10 0 -10 2 -1 6 8 3 10 11 5 21 -11 22 -9 838 1 849 5 4 6 -5 3
-20 -3 -16 -1 -25 5 -22 5 4 9 2 9 -4 0 -5 -6 -12 -12 -14 -10 -4 -10 -6 -1
-6 16 -1 26 16 17 31 -12 19 -12 48 0 48 7 0 7 3 1 8 -5 4 -11 17 -11 30 -1
17 3 22 15 18 13 -5 13 -4 -1 7 -10 8 -14 18 -10 22 4 5 1 5 -6 1 -7 -4 -9
-13 -6 -19 4 -7 3 -8 -2 -4 -14 14 -11 31 10 50 12 10 14 17 6 17 -9 0 -10 3
-1 13 6 8 8 17 4 21 -12 11 -10 76 1 76 7 0 8 3 1 8 -5 4 -11 17 -11 30 -1 17
3 22 15 18 13 -5 13 -4 -1 7 -10 8 -14 18 -10 22 4 5 2 6 -4 2 -6 -3 -10 -36
-9 -77 1 -39 -2 -73 -5 -75 -3 -2 -6 33 -6 78 1 68 4 85 20 99 12 11 14 18 6
18 -9 0 -10 3 -1 13 6 8 8 17 4 21 -12 11 -10 76 1 76 8 0 8 3 1 8 -12 8 -15
104 -4 112 4 3 1 10 -5 16 -10 9 -12 -12 -11 -93 0 -57 -2 -106 -5 -108 -9 -5
-6 523 3 532 5 4 6 -5 3 -20 -3 -16 -1 -25 5 -22 5 4 9 2 9 -4 0 -5 -6 -12
-12 -14 -10 -4 -10 -6 -1 -6 16 -1 26 16 17 31 -12 19 -12 48 0 48 7 0 7 3 1
8 -5 4 -11 17 -11 30 -1 17 3 22 15 18 13 -5 13 -4 -1 7 -10 8 -14 18 -10 22
4 5 2 5 -4 2 -6 -4 -10 -20 -9 -37 1 -17 0 -28 -4 -25 -14 15 -6 71 13 87 12
11 14 18 6 18 -9 0 -10 3 -1 13 6 8 8 17 4 21 -12 11 -10 76 1 76 7 0 8 3 1 8
-5 4 -11 17 -11 30 -1 17 3 22 15 18 13 -5 13 -4 -1 7 -10 8 -14 18 -10 22 4
5 2 6 -4 2 -6 -3 -10 -36 -9 -77 1 -39 -2 -73 -5 -75 -4 -3 -6 131 -1 157 0 4
8 14 17 22 10 10 11 16 3 16 -8 0 -9 3 0 13 6 8 8 17 4 21 -12 11 -10 76 1 76
7 0 8 3 1 8 -5 4 -11 17 -11 30 -1 17 3 22 15 18 14 -5 14 -5 1 6 -18 15 -21
49 -5 60 7 5 6 8 -1 8 -14 0 -14 30 0 30 7 0 7 3 1 8 -5 4 -11 17 -11 30 -1
17 3 22 15 18 13 -5 13 -4 -1 7 -10 8 -14 18 -10 22 4 5 2 5 -4 2 -6 -4 -10
-20 -9 -37 1 -17 0 -28 -4 -25 -14 15 -6 71 13 87 12 11 14 18 6 18 -9 0 -10
3 -1 13 6 8 8 17 4 21 -12 11 -10 76 1 76 7 0 8 3 1 8 -5 4 -11 17 -11 30 -1
17 3 22 15 18 13 -5 13 -4 -1 7 -10 8 -14 18 -10 22 4 5 2 6 -4 2 -6 -3 -10
-36 -9 -77 1 -39 -2 -73 -5 -75 -4 -3 -6 131 -1 157 0 4 8 14 17 22 10 10 11
16 3 16 -8 0 -9 3 0 13 6 8 8 17 4 21 -12 11 -10 76 1 76 7 0 8 3 1 8 -5 4
-11 17 -11 30 -1 17 3 22 15 18 14 -5 14 -5 1 6 -18 15 -21 49 -5 60 6 5 5 8
-4 8 -10 0 -11 3 -2 13 6 8 8 17 4 21 -12 11 -10 76 1 76 7 0 8 3 1 8 -5 4
-11 17 -11 30 -1 17 3 22 15 18 13 -5 13 -4 -1 7 -10 8 -14 18 -10 22 4 5 2 5
-4 2 -6 -3 -10 -29 -9 -56 1 -28 -1 -48 -4 -45 -3 3 -6 29 -6 57 -1 39 4 56
19 70 12 10 14 17 6 17 -9 0 -10 3 -1 13 6 8 8 17 4 21 -11 10 -11 56 -1 62 4
3 5 11 1 17 -12 19 -11 77 1 77 8 0 8 3 1 8 -6 4 -11 30 -11 57 0 28 5 53 11
57 6 5 6 8 -2 8 -6 0 -10 9 -8 20 2 11 1 22 -3 24 -4 2 -7 -50 -7 -116 0 -66
-2 -121 -5 -123 -3 -2 -5 57 -5 130 0 96 3 131 11 128 7 -2 15 1 20 8 4 8 3
10 -4 5 -8 -4 -12 0 -12 11 0 12 -3 14 -8 6 -4 -7 -7 62 -7 152 0 90 4 167 8
172 5 4 6 -5 3 -20 -3 -16 -1 -25 5 -22 5 4 9 2 9 -4 0 -5 -6 -12 -12 -14 -10
-4 -10 -6 -1 -6 16 -1 26 16 17 31 -12 19 -12 48 0 48 7 0 7 3 1 8 -5 4 -11
17 -11 30 -1 17 3 22 15 18 13 -5 13 -4 -1 7 -10 8 -14 18 -10 22 4 5 1 5 -6
1 -7 -4 -9 -13 -6 -19 4 -7 3 -8 -2 -4 -14 14 -11 31 10 50 12 10 14 17 6 17
-9 0 -10 3 -1 13 6 8 8 17 4 21 -12 11 -10 76 1 76 7 0 8 3 1 8 -5 4 -11 17
-11 30 -1 17 3 22 15 18 13 -5 13 -4 -1 7 -10 8 -14 18 -10 22 4 5 2 6 -4 2
-6 -3 -10 -36 -9 -77 1 -39 -2 -73 -5 -75 -3 -2 -6 33 -6 78 1 68 4 85 20 100
12 10 14 17 6 17 -9 0 -10 3 -1 13 6 8 8 17 4 21 -12 11 -10 76 1 76 8 0 8 3
1 8 -12 8 -15 104 -4 112 4 3 1 10 -5 16 -10 9 -12 -12 -11 -93 0 -57 -2 -106
-5 -108 -3 -2 -5 122 -5 275 0 217 3 276 12 273 7 -3 10 -9 7 -14 -10 -17 -13
-50 -3 -44 5 4 9 2 9 -4 0 -5 -6 -12 -12 -14 -10 -4 -10 -6 -1 -6 18 -1 26 18
14 32 -6 8 -6 18 -1 27 5 8 6 19 2 25 -11 17 -9 75 2 75 7 0 8 3 1 8 -5 4 -11
17 -11 30 -1 17 3 22 15 18 13 -5 13 -4 -1 7 -10 8 -14 18 -10 22 4 5 2 5 -4
2 -6 -3 -10 -29 -9 -56 1 -28 -1 -48 -4 -45 -3 3 -6 29 -6 57 -1 39 4 56 19
70 12 10 14 17 6 17 -9 0 -10 3 -1 13 6 8 8 17 4 21 -11 10 -11 56 -1 62 4 3
5 11 1 17 -12 19 -11 77 1 77 8 0 8 3 1 8 -6 4 -11 30 -11 57 0 28 5 53 11 57
6 5 6 8 -2 8 -6 0 -10 9 -8 20 2 11 1 22 -3 24 -4 2 -7 -50 -7 -116 0 -66 -2
-121 -5 -123 -3 -2 -5 57 -5 130 0 96 3 131 11 128 7 -2 15 1 20 8 5 8 3 10
-5 5 -15 -10 -11 25 4 36 6 5 6 8 -2 8 -6 0 -10 9 -8 20 2 11 -3 26 -11 34
-12 13 -12 15 5 21 11 3 19 14 18 25 -1 10 -5 16 -9 14 -4 -3 -8 -1 -8 5 0 5
4 12 9 16 11 6 10 45 -1 45 -4 0 -5 9 -3 20 2 11 0 22 -5 25 -4 3 -6 -11 -4
-30 1 -19 0 -35 -5 -35 -10 0 -8 61 3 79 6 10 5 12 -2 7 -7 -4 -12 -1 -12 7 0
21 12 28 27 16 7 -6 13 -8 13 -3z m-24 -134 c-14 -14 -17 -14 -14 -2 3 17 20
31 27 24 3 -2 -3 -12 -13 -22z m6 -37 c0 -5 -5 -10 -11 -12 -8 -1 -7 0 0 4 8
4 7 8 -2 15 -11 8 -11 9 -1 6 8 -2 14 -8 14 -13z m997 -41 c4 3 8 -1 8 -9 0
-11 -4 -12 -14 -4 -7 6 -13 17 -12 23 0 7 2 6 6 -2 2 -6 8 -10 12 -8z m-1003
-30 c1 -9 0 -13 -4 -10 -3 4 -7 14 -8 22 -1 9 0 13 4 10 3 -4 7 -14 8 -22z
m2288 -52 c3 -5 -1 -9 -9 -9 -8 0 -12 4 -9 9 3 4 7 8 9 8 2 0 6 -4 9 -8z m233
-14 c-3 -8 -6 -5 -6 6 -1 11 2 17 5 13 3 -3 4 -12 1 -19z m240 0 c-3 -8 -6 -5
-6 6 -1 11 2 17 5 13 3 -3 4 -12 1 -19z m240 0 c-3 -8 -6 -5 -6 6 -1 11 2 17
5 13 3 -3 4 -12 1 -19z m-2994 -300 c-6 -7 -9 -21 -8 -30 2 -10 0 -20 -4 -22
-4 -3 -7 11 -7 30 0 23 5 34 14 34 10 0 11 -4 5 -12z m0 -80 c-4 -7 -8 -16 -8
-20 0 -20 -11 -13 -11 7 0 14 6 25 14 25 8 0 10 -5 5 -12z m0 -800 c-4 -7 -8
-16 -8 -20 0 -20 -11 -13 -11 7 0 14 6 25 14 25 8 0 10 -5 5 -12z m0 -240 c-4
-7 -8 -16 -8 -20 0 -20 -11 -13 -11 7 0 14 6 25 14 25 8 0 10 -5 5 -12z m0
-800 c-6 -7 -9 -21 -8 -30 2 -10 0 -20 -4 -22 -4 -3 -7 11 -7 30 0 23 5 34 14
34 10 0 11 -4 5 -12z m0 -80 c-4 -7 -8 -16 -8 -20 0 -20 -11 -13 -11 7 0 14 6
25 14 25 8 0 10 -5 5 -12z m-1 -242 c-5 -6 -8 -55 -7 -109 0 -54 -2 -100 -5
-102 -3 -2 -5 50 -5 115 0 91 3 116 13 113 7 -3 9 -10 4 -17z m1 -238 c-4 -7
-8 -16 -8 -20 0 -20 -11 -13 -11 7 0 14 6 25 14 25 8 0 10 -5 5 -12z m0 -240
c-4 -7 -8 -16 -8 -20 0 -20 -11 -13 -11 7 0 14 6 25 14 25 8 0 10 -5 5 -12z
m-8 -262 c0 -58 -3 -107 -5 -110 -4 -4 -5 203 -1 212 5 10 6 -12 6 -102z m8
-138 c-4 -7 -8 -16 -8 -20 0 -20 -11 -13 -11 7 0 14 6 25 14 25 8 0 10 -5 5
-12z m0 -240 c-4 -7 -8 -16 -8 -20 0 -20 -11 -13 -11 7 0 14 6 25 14 25 8 0
10 -5 5 -12z m4211 -186 c3 -5 -1 -9 -9 -9 -8 0 -12 4 -9 9 3 4 7 8 9 8 2 0 6
-4 9 -8z m0 -160 c3 -5 -1 -9 -9 -9 -8 0 -12 4 -9 9 3 4 7 8 9 8 2 0 6 -4 9
-8z m0 -160 c3 -5 -1 -9 -9 -9 -8 0 -12 4 -9 9 3 4 7 8 9 8 2 0 6 -4 9 -8z m0
-160 c3 -5 -1 -9 -9 -9 -8 0 -12 4 -9 9 3 4 7 8 9 8 2 0 6 -4 9 -8z m-4211
-54 c-4 -7 -8 -16 -8 -20 0 -20 -11 -13 -11 7 0 14 6 25 14 25 8 0 10 -5 5
-12z m0 -240 c-4 -7 -8 -16 -8 -20 0 -20 -11 -13 -11 7 0 14 6 25 14 25 8 0
10 -5 5 -12z"/>
<path d="M2146 6442 c-3 -6 -1 -14 5 -17 15 -10 25 3 12 16 -7 7 -13 7 -17 1z"/>
<path d="M2205 6440 c-4 -6 -11 -7 -17 -4 -7 4 -8 2 -4 -5 6 -9 11 -9 21 -1
10 8 14 7 18 -2 4 -9 6 -9 6 -1 1 16 -16 26 -24 13z"/>
<path d="M5215 6439 c-4 -5 -4 -13 -1 -16 3 -4 6 0 6 8 0 11 2 11 10 -1 6 -9
10 -10 10 -3 0 17 -17 25 -25 12z"/>
<path d="M1690 6431 c0 -6 4 -12 8 -15 5 -3 9 1 9 9 0 8 -4 15 -9 15 -4 0 -8
-4 -8 -9z"/>
<path d="M1770 6431 c0 -6 4 -12 8 -15 5 -3 9 1 9 9 0 8 -4 15 -9 15 -4 0 -8
-4 -8 -9z"/>
<path d="M1850 6431 c0 -6 4 -12 8 -15 5 -3 9 1 9 9 0 8 -4 15 -9 15 -4 0 -8
-4 -8 -9z"/>
<path d="M1946 6428 c3 -5 10 -6 15 -3 13 9 11 12 -6 12 -8 0 -12 -4 -9 -9z"/>
<path d="M2016 6428 c3 -5 10 -6 15 -3 13 9 11 12 -6 12 -8 0 -12 -4 -9 -9z"/>
<path d="M2056 6428 c3 -5 10 -6 15 -3 13 9 11 12 -6 12 -8 0 -12 -4 -9 -9z"/>
<path d="M2090 6430 c0 -5 5 -10 11 -10 5 0 7 5 4 10 -3 6 -8 10 -11 10 -2 0
-4 -4 -4 -10z"/>
<path d="M2256 6428 c3 -5 10 -6 15 -3 13 9 11 12 -6 12 -8 0 -12 -4 -9 -9z"/>
<path d="M2296 6428 c3 -5 10 -6 15 -3 13 9 11 12 -6 12 -8 0 -12 -4 -9 -9z"/>
<path d="M2330 6430 c0 -5 5 -10 11 -10 5 0 7 5 4 10 -3 6 -8 10 -11 10 -2 0
-4 -4 -4 -10z"/>
<path d="M5296 6428 c3 -5 10 -6 15 -3 13 9 11 12 -6 12 -8 0 -12 -4 -9 -9z"/>
<path d="M5376 6428 c3 -5 10 -6 15 -3 13 9 11 12 -6 12 -8 0 -12 -4 -9 -9z"/>
<path d="M5450 6431 c0 -6 4 -12 8 -15 5 -3 9 1 9 9 0 8 -4 15 -9 15 -4 0 -8
-4 -8 -9z"/>
<path d="M5530 6431 c0 -6 4 -12 8 -15 5 -3 9 1 9 9 0 8 -4 15 -9 15 -4 0 -8
-4 -8 -9z"/>
<path d="M5610 6431 c0 -6 4 -12 8 -15 5 -3 9 1 9 9 0 8 -4 15 -9 15 -4 0 -8
-4 -8 -9z"/>
<path d="M5690 6431 c0 -6 4 -12 8 -15 5 -3 9 1 9 9 0 8 -4 15 -9 15 -4 0 -8
-4 -8 -9z"/>
<path d="M2920 6141 c-8 -6 -18 -7 -22 -5 -4 3 -8 0 -8 -5 0 -13 10 -14 30 -1
9 6 20 5 30 -3 13 -11 13 -10 1 6 -7 9 -14 17 -15 17 0 0 -8 -4 -16 -9z"/>
<path d="M4737 6143 c-4 -3 -7 -11 -7 -17 0 -6 5 -5 12 2 6 6 9 14 7 17 -3 3
-9 2 -12 -2z"/>
<path d="M2825 6130 c-3 -6 1 -7 9 -4 18 7 21 14 7 14 -6 0 -13 -4 -16 -10z"/>
<path d="M1604 5414 c0 -12 4 -20 8 -18 4 3 8 1 8 -5 0 -5 -6 -12 -12 -14 -10
-4 -10 -6 -1 -6 18 -1 26 18 14 33 -7 8 -7 16 0 23 6 6 5 10 -4 10 -7 0 -13
-11 -13 -23z"/>
<path d="M1604 5334 c0 -12 4 -20 8 -18 4 3 8 1 8 -5 0 -5 -6 -12 -12 -14 -10
-4 -10 -6 -1 -6 18 -1 26 18 14 33 -7 8 -7 16 0 23 6 6 5 10 -4 10 -7 0 -13
-11 -13 -23z"/>
<path d="M1604 5254 c0 -12 4 -20 8 -18 4 3 8 1 8 -5 0 -5 -6 -12 -12 -14 -10
-4 -10 -6 -1 -6 18 -1 26 18 14 33 -7 8 -7 16 0 23 6 6 5 10 -4 10 -7 0 -13
-11 -13 -23z"/>
<path d="M2652 5128 c4 -17 -150 -22 -171 -5 -12 9 -13 9 -7 -1 6 -10 -9 -12
-73 -11 -56 1 -79 5 -74 13 4 6 -1 5 -10 -3 -14 -11 -20 -11 -34 0 -10 8 -14
9 -10 2 5 -8 -6 -11 -43 -10 -34 1 -50 -2 -50 -10 0 -7 -5 -13 -11 -13 -5 0
-7 6 -3 13 4 7 3 9 -2 4 -5 -5 -10 -13 -10 -18 -1 -5 -2 -10 -4 -11 -1 -2 -3
-11 -5 -20 -2 -12 2 -15 13 -11 13 5 14 3 5 -7 -6 -7 -9 -19 -6 -28 4 -10 2
-13 -5 -8 -8 5 -10 2 -6 -8 3 -9 10 -16 16 -16 5 0 6 -4 3 -10 -3 -5 -1 -10 5
-10 7 0 10 -7 6 -15 -3 -8 -1 -15 3 -15 5 0 11 5 13 12 2 6 12 12 21 14 9 1
15 -2 11 -7 -3 -5 -10 -6 -16 -3 -7 4 -8 2 -4 -4 4 -6 13 -9 21 -5 9 3 15 -1
15 -8 1 -9 6 -6 13 6 7 11 22 21 34 21 13 1 20 -3 17 -7 -3 -5 -9 -7 -14 -4
-5 3 -11 2 -14 -3 -2 -4 8 -8 24 -7 16 0 28 2 28 5 -1 19 4 19 20 0 16 -20 20
-21 25 -7 4 11 2 14 -9 10 -7 -3 -14 -1 -14 4 0 5 14 9 30 8 17 0 30 -3 30 -7
0 -5 -5 -8 -11 -8 -5 0 -7 -5 -3 -11 5 -8 10 -6 18 7 6 11 21 20 33 20 13 1
20 -3 17 -7 -3 -5 -9 -7 -14 -4 -5 3 -11 2 -14 -3 -2 -4 8 -8 24 -7 16 0 28 2
28 5 -1 19 4 19 20 0 16 -20 20 -21 25 -7 4 11 2 14 -9 10 -7 -3 -14 -1 -14 4
0 5 15 8 34 8 19 0 32 -3 29 -7 -2 -5 3 -8 12 -8 9 0 14 4 11 8 -3 5 1 9 9 9
8 0 12 -4 10 -8 -3 -4 2 -9 10 -12 9 -4 12 -1 8 9 -3 7 0 14 6 14 6 0 11 -6
11 -12 0 -9 4 -8 10 2 8 13 10 13 10 -2 0 -9 5 -20 11 -24 7 -4 9 0 5 13 -5
15 -1 19 19 19 14 0 25 -4 25 -9 0 -5 -7 -6 -16 -3 -14 6 -15 4 -4 -9 12 -15
15 -15 24 2 8 12 23 18 48 18 20 0 34 -3 32 -7 -3 -4 2 -8 11 -8 9 0 14 4 11
8 -3 5 1 9 9 9 8 0 12 -4 10 -8 -3 -4 2 -9 10 -12 9 -4 12 -1 8 9 -3 7 0 14 6
14 6 0 11 -6 11 -12 0 -9 4 -8 10 2 8 13 10 13 10 -2 0 -9 5 -20 11 -24 7 -4
9 0 5 13 -5 15 -1 19 19 19 14 0 25 -4 25 -9 0 -5 -7 -6 -16 -3 -14 6 -15 4
-4 -9 12 -15 15 -15 24 2 8 12 23 18 48 18 20 0 34 -3 32 -7 -3 -4 2 -8 11 -8
9 0 14 4 11 8 -3 5 1 9 9 9 8 0 12 -4 10 -8 -3 -4 2 -9 10 -12 9 -4 12 -1 8 9
-3 7 0 14 6 14 6 0 11 -6 11 -12 0 -9 4 -8 10 2 8 13 10 13 10 -2 0 -9 5 -20
11 -24 7 -4 9 0 5 13 -5 15 -1 19 19 19 14 0 25 -4 25 -9 0 -5 -7 -6 -16 -3
-14 6 -15 4 -4 -9 12 -15 15 -15 24 2 8 12 23 18 48 18 20 0 34 -3 32 -7 -3
-4 2 -8 11 -8 9 0 14 4 11 8 -3 5 1 9 9 9 8 0 12 -4 10 -8 -3 -4 2 -9 10 -12
9 -4 12 -1 8 9 -3 7 0 14 6 14 6 0 11 -6 11 -12 0 -9 4 -8 10 2 8 13 10 13 10
-2 0 -9 5 -20 11 -24 7 -4 9 0 5 13 -5 15 -1 19 19 19 14 0 25 -4 25 -9 0 -5
-7 -6 -16 -3 -14 6 -15 4 -4 -9 12 -15 15 -15 24 2 8 12 23 18 48 18 20 0 34
-3 32 -7 -3 -4 2 -8 11 -8 9 0 14 4 11 8 -3 5 1 9 9 9 8 0 12 -4 10 -8 -3 -4
2 -9 10 -12 9 -4 12 -1 8 9 -3 7 0 14 6 14 6 0 11 -6 11 -12 0 -9 4 -8 10 2 8
13 10 13 10 -2 0 -9 5 -20 11 -24 7 -4 9 0 5 13 -5 15 -1 19 19 19 14 0 25 -4
25 -9 0 -5 -7 -6 -16 -3 -14 6 -15 4 -4 -9 12 -15 15 -15 24 2 8 12 23 18 48
18 20 0 34 -3 32 -7 -3 -4 2 -8 11 -8 9 0 14 4 11 8 -3 5 1 9 9 9 8 0 12 -4
10 -8 -3 -4 2 -9 10 -12 9 -4 12 -1 8 9 -3 7 0 14 6 14 6 0 11 -6 11 -12 0 -9
4 -8 10 2 8 13 10 13 10 -2 0 -9 5 -20 11 -24 7 -4 9 0 5 13 -5 15 -1 19 19
19 14 0 25 -4 25 -9 0 -5 -7 -6 -16 -3 -14 6 -15 4 -4 -9 12 -15 15 -15 24 2
8 12 23 18 48 18 20 0 34 -3 32 -7 -3 -4 2 -8 11 -8 9 0 14 4 11 8 -3 5 1 9 9
9 8 0 12 -4 10 -8 -3 -4 2 -9 10 -12 9 -4 12 -1 8 9 -3 7 0 14 6 14 6 0 11 -6
11 -12 0 -9 4 -8 10 2 8 13 10 13 10 -2 0 -9 5 -20 11 -24 7 -4 9 0 5 13 -5
15 -1 19 19 19 14 0 25 -4 25 -9 0 -5 -7 -6 -16 -3 -14 6 -15 4 -4 -9 12 -15
15 -15 24 2 8 12 23 18 48 18 20 0 34 -3 32 -7 -3 -4 2 -8 11 -8 9 0 14 4 11
8 -3 5 1 9 9 9 8 0 12 -4 10 -8 -3 -4 2 -9 10 -12 9 -4 12 -1 8 9 -3 7 0 14 6
14 6 0 11 -6 11 -12 0 -9 4 -8 10 2 8 13 10 13 10 -2 0 -9 5 -20 11 -24 7 -4
9 0 5 13 -5 15 -1 19 19 19 14 0 25 -4 25 -9 0 -5 -7 -6 -16 -3 -14 6 -15 4
-4 -9 12 -15 15 -15 24 2 8 12 23 18 48 18 20 0 34 -3 32 -7 -3 -4 2 -8 11 -8
9 0 14 4 11 8 -3 5 1 9 9 9 8 0 12 -4 10 -8 -3 -4 2 -9 10 -12 9 -4 12 -1 8 9
-3 7 0 14 6 14 6 0 11 -6 11 -12 0 -9 4 -8 10 2 8 13 10 13 10 -2 0 -9 5 -20
11 -24 7 -4 9 0 5 13 -5 15 -1 19 19 19 14 0 25 -4 25 -9 0 -5 -7 -6 -16 -3
-14 6 -15 4 -4 -9 12 -15 15 -15 24 2 8 12 23 18 48 18 20 0 34 -3 32 -7 -3
-4 2 -8 11 -8 9 0 14 4 11 8 -3 5 1 9 9 9 8 0 12 -4 10 -8 -3 -4 2 -9 10 -12
9 -4 12 -1 8 9 -3 7 0 14 6 14 6 0 11 -6 11 -12 0 -9 4 -8 10 2 8 13 10 13 10
-2 0 -9 5 -20 11 -24 7 -4 9 0 5 13 -5 15 -1 19 19 19 14 0 25 -4 25 -9 0 -5
-7 -6 -16 -3 -14 6 -15 4 -4 -9 12 -15 15 -15 24 2 8 12 23 18 48 18 20 0 34
-3 32 -7 -3 -4 2 -8 11 -8 9 0 14 4 11 8 -3 5 1 9 9 9 8 0 12 -4 10 -8 -3 -4
2 -9 10 -12 9 -4 12 -1 8 9 -3 7 0 14 6 14 6 0 11 -6 11 -12 0 -9 4 -8 10 2 8
13 10 13 10 -2 0 -9 5 -20 11 -24 7 -4 9 0 5 13 -5 15 -1 19 19 19 14 0 25 -4
25 -9 0 -5 -7 -6 -16 -3 -14 6 -15 4 -4 -9 12 -15 15 -15 24 2 8 12 23 18 48
18 20 0 34 -3 32 -7 -3 -4 2 -8 11 -8 9 0 14 4 11 8 -3 5 1 9 9 9 8 0 12 -4
10 -8 -3 -4 2 -9 10 -12 9 -4 12 -1 8 9 -3 7 0 14 6 14 6 0 11 -6 11 -12 0 -9
4 -8 10 2 8 13 10 13 10 -2 0 -9 5 -20 12 -24 7 -5 9 -2 5 8 -9 24 4 30 20 10
12 -16 13 -16 7 3 l-6 20 18 -20 c14 -17 16 -17 11 -2 -5 12 -1 17 13 17 20 0
23 12 23 83 0 19 7 22 25 7 9 -7 9 -7 2 2 -6 8 -5 17 3 27 6 8 8 12 2 9 -5 -3
-19 3 -30 14 -13 13 -15 18 -5 15 8 -2 12 -2 7 0 -4 3 -4 10 0 16 3 6 -4 3
-18 -6 -25 -18 -64 -23 -54 -8 3 5 1 13 -5 16 -6 4 -9 1 -8 -7 4 -16 -111 -21
-131 -4 -11 8 -13 8 -7 -1 5 -10 -6 -13 -44 -13 -29 0 -49 4 -45 9 3 5 1 13
-5 16 -6 4 -9 1 -8 -7 4 -16 -111 -21 -131 -4 -12 8 -13 8 -7 -2 6 -11 -10
-13 -81 -10 -66 2 -87 6 -85 16 1 8 -2 11 -8 7 -6 -3 -8 -11 -5 -16 4 -5 -3
-9 -15 -9 -12 0 -19 4 -15 9 3 5 1 13 -5 16 -6 4 -9 1 -8 -6 2 -9 -13 -13 -52
-13 -41 -1 -54 2 -52 12 1 8 -2 11 -8 7 -6 -3 -8 -11 -5 -16 4 -5 -3 -9 -15
-9 -12 0 -19 4 -15 9 3 5 1 13 -5 16 -6 4 -9 1 -8 -6 2 -10 -22 -14 -96 -17
-65 -2 -96 0 -92 6 3 6 2 14 -4 17 -6 4 -9 1 -8 -7 4 -16 -111 -21 -131 -4
-11 8 -13 8 -7 -1 5 -10 -6 -13 -44 -13 -29 0 -49 4 -45 9 3 5 1 13 -5 16 -6
4 -9 1 -8 -7 4 -16 -111 -21 -131 -4 -12 8 -13 8 -7 -2 6 -11 -10 -13 -81 -10
-66 2 -87 6 -85 16 1 8 -2 11 -8 7 -6 -3 -8 -11 -5 -16 4 -5 -3 -9 -15 -9 -12
0 -19 4 -15 9 3 5 1 13 -5 16 -6 4 -9 1 -8 -6 2 -9 -13 -13 -52 -13 -41 -1
-54 2 -52 12 1 8 -2 11 -8 7 -6 -3 -8 -11 -5 -16 4 -5 -3 -9 -15 -9 -12 0 -19
4 -15 9 3 5 1 13 -5 16 -6 4 -9 1 -8 -6 2 -10 -22 -14 -96 -17 -65 -2 -96 0
-92 6 3 6 2 14 -4 17 -6 4 -9 1 -8 -7 4 -16 -111 -21 -131 -4 -11 8 -13 8 -7
-1 5 -10 -6 -13 -44 -13 -29 0 -49 4 -45 9 3 5 1 13 -5 16 -6 4 -9 1 -8 -7 4
-16 -111 -21 -131 -4 -12 8 -13 8 -7 -2 6 -11 -10 -13 -81 -10 -66 2 -87 6
-85 16 1 8 -2 11 -8 7 -6 -3 -8 -11 -5 -16 4 -5 -3 -9 -15 -9 -12 0 -19 4 -15
9 3 5 1 13 -5 16 -6 4 -9 1 -8 -6 2 -9 -13 -13 -52 -13 -41 -1 -54 2 -52 12 1
8 -2 11 -8 7 -6 -3 -8 -11 -5 -16 4 -5 -3 -9 -15 -9 -12 0 -19 4 -15 9 3 5 1
13 -5 16 -6 4 -9 1 -8 -7z m-478 -56 c3 -5 -1 -9 -9 -9 -8 0 -12 4 -9 9 3 4 7
8 9 8 2 0 6 -4 9 -8z"/>
<path d="M5423 5020 c-2 -23 13 -35 23 -19 5 8 3 9 -6 4 -10 -6 -12 -4 -7 8 3
9 3 18 -1 21 -4 3 -8 -4 -9 -14z"/>
<path d="M2755 4940 c-3 -5 -1 -10 4 -10 6 0 11 5 11 10 0 6 -2 10 -4 10 -3 0
-8 -4 -11 -10z"/>
<path d="M2995 4940 c-3 -5 -1 -10 4 -10 6 0 11 5 11 10 0 6 -2 10 -4 10 -3 0
-8 -4 -11 -10z"/>
<path d="M3235 4940 c-3 -5 -1 -10 4 -10 6 0 11 5 11 10 0 6 -2 10 -4 10 -3 0
-8 -4 -11 -10z"/>
<path d="M3475 4940 c-3 -5 -1 -10 4 -10 6 0 11 5 11 10 0 6 -2 10 -4 10 -3 0
-8 -4 -11 -10z"/>
<path d="M3715 4940 c-3 -5 -1 -10 4 -10 6 0 11 5 11 10 0 6 -2 10 -4 10 -3 0
-8 -4 -11 -10z"/>
<path d="M3955 4940 c-3 -5 -1 -10 4 -10 6 0 11 5 11 10 0 6 -2 10 -4 10 -3 0
-8 -4 -11 -10z"/>
<path d="M4195 4940 c-3 -5 -1 -10 4 -10 6 0 11 5 11 10 0 6 -2 10 -4 10 -3 0
-8 -4 -11 -10z"/>
<path d="M4435 4940 c-3 -5 -1 -10 4 -10 6 0 11 5 11 10 0 6 -2 10 -4 10 -3 0
-8 -4 -11 -10z"/>
<path d="M4675 4940 c-3 -5 -1 -10 4 -10 6 0 11 5 11 10 0 6 -2 10 -4 10 -3 0
-8 -4 -11 -10z"/>
<path d="M4915 4940 c-3 -5 -1 -10 4 -10 6 0 11 5 11 10 0 6 -2 10 -4 10 -3 0
-8 -4 -11 -10z"/>
<path d="M5155 4940 c-3 -5 -1 -10 4 -10 6 0 11 5 11 10 0 6 -2 10 -4 10 -3 0
-8 -4 -11 -10z"/>
<path d="M5380 4626 c0 -2 7 -7 16 -10 8 -3 12 -2 9 4 -6 10 -25 14 -25 6z"/>
<path d="M2272 4609 c2 -10 -4 -13 -21 -11 -35 5 -93 -7 -86 -19 4 -5 1 -9 -4
-9 -15 0 -14 -33 1 -48 8 -8 8 -15 0 -25 -15 -18 -11 -56 5 -50 8 3 11 0 8 -9
-4 -9 0 -15 9 -15 8 0 12 5 9 10 -4 6 0 8 9 4 9 -3 21 0 27 6 9 9 11 8 6 -5
-4 -11 -2 -18 4 -18 6 0 11 7 11 15 0 8 4 15 10 15 5 0 7 -8 3 -17 -3 -10 -3
-15 2 -11 4 4 13 3 20 -2 8 -7 12 -5 12 5 0 8 -5 11 -10 8 -6 -4 -7 -1 -2 7 7
11 10 10 19 -1 6 -8 17 -15 25 -17 12 -3 12 0 1 13 -11 13 -10 15 4 9 9 -3 16
-10 16 -14 0 -4 21 -6 47 -5 27 2 54 -2 62 -8 12 -9 13 -9 7 1 -9 16 52 14 73
-2 10 -7 13 -8 9 -1 -4 6 2 16 13 23 16 10 20 10 25 -2 7 -17 64 -16 64 1 0 7
4 13 10 13 5 0 7 -8 3 -17 -3 -10 -3 -15 2 -11 4 4 13 3 20 -2 8 -7 12 -5 12
5 0 8 -5 11 -10 8 -6 -3 -7 -1 -3 6 6 9 11 9 21 1 10 -8 15 -8 21 1 5 9 10 8
19 -4 11 -15 38 -18 51 -4 4 3 -3 4 -15 2 -12 -2 -19 0 -16 5 9 14 38 4 46
-16 7 -17 8 -17 8 -1 1 10 9 17 20 17 11 0 25 2 33 3 7 2 10 2 6 0 -18 -10 -6
-20 19 -17 15 1 34 -3 42 -9 12 -9 13 -9 7 1 -9 16 52 14 73 -2 10 -7 13 -8 9
-1 -4 6 2 16 13 23 16 10 21 10 25 -3 6 -14 8 -13 20 2 12 16 13 16 8 -7 -2
-14 -2 -19 2 -12 3 6 10 10 15 7 5 -4 6 1 3 9 -6 16 23 16 34 0 10 -15 62 -12
62 3 0 7 4 13 10 13 5 0 7 -8 3 -17 -3 -10 -3 -15 2 -11 4 4 13 3 20 -2 8 -7
12 -5 12 5 0 8 -5 11 -10 8 -6 -4 -7 -1 -2 7 7 11 10 10 19 -1 6 -8 17 -15 25
-17 12 -3 12 0 1 13 -11 13 -10 15 4 9 9 -3 16 -10 16 -14 0 -4 21 -6 47 -5
27 2 54 -2 62 -8 12 -9 13 -9 7 1 -9 16 52 14 73 -2 10 -7 13 -8 9 -1 -4 6 2
16 13 23 16 10 20 10 25 -2 7 -17 64 -16 64 1 0 7 4 13 10 13 5 0 7 -8 3 -17
-3 -10 -3 -15 2 -11 4 4 13 3 20 -2 8 -7 12 -5 12 5 0 8 -5 11 -10 8 -6 -3 -7
-1 -3 6 6 9 11 9 21 1 10 -8 15 -8 21 1 5 9 10 8 19 -4 11 -15 38 -18 51 -4 4
3 -3 4 -15 2 -12 -2 -19 0 -16 5 9 14 38 4 46 -16 7 -17 8 -17 8 -1 1 11 9 17
24 18 12 0 30 2 40 4 10 2 21 -3 24 -11 4 -12 8 -12 19 3 12 16 13 16 8 -7 -2
-14 -2 -19 2 -12 3 6 10 10 15 7 5 -4 6 1 3 9 -6 16 23 16 34 0 10 -15 62 -12
62 3 0 7 4 13 10 13 5 0 7 -8 3 -17 -3 -10 -3 -15 2 -11 4 4 13 3 20 -2 8 -7
12 -5 12 5 0 8 -5 11 -10 8 -6 -4 -7 -1 -2 7 7 11 10 10 19 -1 6 -8 17 -15 25
-17 12 -3 12 0 1 13 -11 13 -10 15 4 9 9 -3 16 -10 16 -15 0 -12 35 -6 54 10
13 11 17 11 22 -3 6 -15 8 -15 20 1 12 16 13 16 8 -7 -2 -14 -2 -19 2 -12 3 6
10 10 15 7 5 -4 6 1 3 9 -6 16 23 16 34 0 10 -15 62 -12 62 3 0 7 4 13 10 13
5 0 7 -8 3 -17 -3 -10 -3 -15 2 -11 4 4 13 3 20 -2 8 -7 12 -5 12 5 0 8 -5 11
-10 8 -6 -4 -7 -1 -2 7 7 11 10 10 19 -1 6 -8 17 -15 25 -17 12 -3 12 0 1 13
-11 13 -10 15 4 9 9 -3 16 -10 16 -15 0 -12 35 -6 54 10 13 11 17 11 21 -2 7
-18 65 -18 65 0 0 7 4 13 10 13 5 0 7 -8 3 -17 -3 -10 -3 -15 2 -11 4 4 13 3
20 -2 8 -7 12 -5 12 5 0 8 -5 11 -10 8 -6 -3 -7 -1 -3 6 6 9 11 9 21 1 10 -8
15 -8 21 1 5 9 10 8 19 -4 11 -15 38 -18 51 -4 4 3 -3 4 -15 2 -12 -2 -19 0
-16 5 9 14 38 4 46 -16 7 -17 8 -17 8 -1 1 10 9 17 20 17 11 0 25 2 33 3 7 2
10 2 6 0 -18 -10 -6 -20 19 -17 15 1 34 -3 42 -9 12 -9 13 -9 7 1 -9 16 52 14
73 -2 10 -7 13 -8 9 -1 -4 6 2 16 13 23 16 10 21 10 25 -3 6 -14 8 -13 20 2
12 16 13 16 8 -7 -2 -14 -2 -19 2 -12 3 6 10 10 15 7 5 -4 6 1 3 9 -6 16 23
16 34 0 10 -15 62 -12 62 3 0 7 4 13 10 13 5 0 7 -8 3 -17 -3 -10 -3 -15 2
-11 4 4 13 3 20 -2 8 -7 12 -5 12 5 0 8 -5 11 -10 8 -6 -4 -7 -1 -2 7 7 11 10
10 19 -1 6 -8 17 -15 25 -17 12 -3 12 0 1 13 -11 13 -10 15 4 9 9 -3 16 -10
16 -14 0 -4 21 -6 47 -5 27 2 54 -2 62 -8 12 -9 13 -9 7 1 -4 7 -1 12 9 12 10
0 13 5 9 13 -5 7 0 6 11 -3 11 -9 16 -10 11 -2 -4 7 -2 12 4 12 6 0 18 7 26
15 9 8 11 15 7 15 -5 0 -9 14 -9 30 0 33 5 36 26 18 12 -11 12 -10 1 4 -7 9
-11 27 -9 39 2 18 -3 24 -27 31 -18 4 -31 4 -33 -2 -2 -6 -9 -7 -15 -3 -6 4
-31 6 -55 4 -24 -1 -50 3 -58 10 -12 10 -15 10 -12 0 4 -17 -210 -15 -230 1
-10 9 -12 8 -10 -3 2 -8 -3 -13 -11 -11 -7 1 -165 3 -349 3 -231 0 -341 4
-350 11 -10 9 -12 8 -10 -1 4 -17 -210 -15 -230 1 -10 9 -12 8 -10 -3 2 -8 -3
-13 -11 -11 -7 1 -165 3 -349 3 -231 0 -341 4 -350 11 -10 9 -12 8 -10 -1 4
-17 -210 -15 -230 1 -10 9 -12 8 -10 -3 2 -8 -3 -13 -10 -11 -8 1 -129 3 -270
3 -171 0 -261 4 -270 11 -10 9 -12 8 -10 -1 4 -17 -210 -15 -230 1 -10 9 -12
8 -10 -3z m3151 -34 c-3 -9 -8 -14 -10 -11 -3 3 -2 9 2 15 9 16 15 13 8 -4z
m-3243 -25 c0 -5 -2 -10 -4 -10 -3 0 -8 5 -11 10 -3 6 -1 10 4 10 6 0 11 -4
11 -10z m210 -104 c0 -2 -7 -7 -16 -10 -8 -3 -12 -2 -9 4 6 10 25 14 25 6z
m80 0 c0 -3 -4 -8 -10 -11 -5 -3 -10 -1 -10 4 0 6 5 11 10 11 6 0 10 -2 10 -4z
m80 0 c0 -3 -4 -8 -10 -11 -5 -3 -10 -1 -10 4 0 6 5 11 10 11 6 0 10 -2 10 -4z
m85 -5 c-9 -8 -36 -10 -30 -2 2 4 11 8 20 8 8 0 13 -3 10 -6z m315 5 c0 -3 -4
-8 -10 -11 -5 -3 -10 -1 -10 4 0 6 5 11 10 11 6 0 10 -2 10 -4z m80 0 c0 -3
-4 -8 -10 -11 -5 -3 -10 -1 -10 4 0 6 5 11 10 11 6 0 10 -2 10 -4z m165 -5
c-9 -8 -36 -10 -30 -2 2 4 11 8 20 8 8 0 13 -3 10 -6z m155 5 c0 -2 -7 -7 -16
-10 -8 -3 -12 -2 -9 4 6 10 25 14 25 6z m80 0 c0 -3 -4 -8 -10 -11 -5 -3 -10
-1 -10 4 0 6 5 11 10 11 6 0 10 -2 10 -4z m80 0 c0 -3 -4 -8 -10 -11 -5 -3
-10 -1 -10 4 0 6 5 11 10 11 6 0 10 -2 10 -4z m85 -5 c-9 -8 -36 -10 -30 -2 2
4 11 8 20 8 8 0 13 -3 10 -6z m400 0 c-9 -8 -36 -10 -30 -2 2 4 11 8 20 8 8 0
13 -3 10 -6z m155 5 c0 -2 -7 -7 -16 -10 -8 -3 -12 -2 -9 4 6 10 25 14 25 6z
m165 -5 c-9 -8 -36 -10 -30 -2 2 4 11 8 20 8 8 0 13 -3 10 -6z m155 5 c0 -2
-7 -7 -16 -10 -8 -3 -12 -2 -9 4 6 10 25 14 25 6z m85 -5 c-9 -8 -36 -10 -30
-2 2 4 11 8 20 8 8 0 13 -3 10 -6z m315 5 c0 -3 -4 -8 -10 -11 -5 -3 -10 -1
-10 4 0 6 5 11 10 11 6 0 10 -2 10 -4z m80 0 c0 -3 -4 -8 -10 -11 -5 -3 -10
-1 -10 4 0 6 5 11 10 11 6 0 10 -2 10 -4z m165 -5 c-9 -8 -36 -10 -30 -2 2 4
11 8 20 8 8 0 13 -3 10 -6z m155 5 c0 -2 -7 -7 -16 -10 -8 -3 -12 -2 -9 4 6
10 25 14 25 6z m80 0 c0 -3 -4 -8 -10 -11 -5 -3 -10 -1 -10 4 0 6 5 11 10 11
6 0 10 -2 10 -4z"/>
<path d="M2140 4509 c0 -5 5 -7 10 -4 6 3 10 8 10 11 0 2 -4 4 -10 4 -5 0 -10
-5 -10 -11z"/>
<path d="M5420 4513 c0 -6 8 -17 18 -24 16 -13 16 -13 2 6 -8 11 -16 22 -17
24 -2 2 -3 0 -3 -6z"/>
<path d="M1604 4454 c0 -12 4 -20 8 -18 4 3 8 1 8 -5 0 -5 -6 -12 -12 -14 -10
-4 -10 -6 -1 -6 18 -1 26 18 14 33 -7 8 -7 16 0 23 6 6 5 10 -4 10 -7 0 -13
-11 -13 -23z"/>
<path d="M1604 4374 c0 -12 4 -20 8 -18 4 3 8 1 8 -5 0 -5 -6 -12 -12 -14 -10
-4 -10 -6 -1 -6 18 -1 26 18 14 33 -7 8 -7 16 0 23 6 6 5 10 -4 10 -7 0 -13
-11 -13 -23z"/>
<path d="M1604 4294 c0 -12 4 -20 8 -18 4 3 8 1 8 -5 0 -5 -6 -12 -12 -14 -10
-4 -10 -6 -1 -6 18 -1 26 18 14 33 -7 8 -7 16 0 23 6 6 5 10 -4 10 -7 0 -13
-11 -13 -23z"/>
<path d="M2759 4075 c-1 -3 -2 -11 -3 -17 -1 -10 -68 -14 -291 -16 -199 -1
-293 -6 -300 -14 -7 -8 -6 -9 5 -2 12 6 11 2 -3 -19 -9 -15 -14 -27 -9 -27 4
0 8 -9 9 -20 1 -11 -3 -20 -8 -20 -6 0 -8 4 -4 9 3 5 1 12 -4 15 -5 4 -8 -2
-6 -11 2 -10 4 -22 4 -26 1 -5 7 -5 14 -1 9 6 9 5 0 -7 -9 -11 -8 -20 4 -39 8
-14 12 -18 9 -8 -5 19 25 19 32 0 2 -7 8 -12 14 -12 6 0 8 6 5 14 -4 11 0 13
15 11 11 -3 23 -7 26 -10 3 -2 11 0 18 6 9 8 11 5 8 -13 -2 -13 -1 -17 2 -10
5 10 9 10 22 0 14 -10 15 -10 5 2 -17 18 -16 27 2 27 8 0 12 -4 9 -8 -2 -4 0
-10 6 -14 5 -3 10 1 10 9 0 21 8 20 50 -5 l35 -21 -20 22 -20 23 21 -11 c15
-8 24 -8 32 0 8 8 10 4 6 -13 -2 -13 -1 -18 2 -11 5 10 9 10 22 0 14 -10 15
-10 5 2 -17 18 -16 27 2 27 8 0 12 -4 9 -8 -2 -4 0 -10 6 -14 5 -3 10 1 10 9
0 20 10 20 37 1 16 -11 24 -12 29 -4 5 8 3 9 -6 4 -8 -5 -11 -4 -7 3 8 12 25
11 47 -3 21 -13 40 -15 40 -3 0 6 -8 7 -17 4 -10 -4 -14 -3 -9 1 10 10 96 11
90 1 -2 -4 -13 -5 -24 -3 -11 2 -22 0 -25 -4 -6 -11 56 -6 64 5 8 12 48 11 58
0 4 -5 2 -6 -4 -2 -7 4 -13 2 -13 -3 0 -15 6 -14 35 5 21 14 24 14 34 -3 8
-14 10 -14 11 -3 0 17 55 21 80 5 21 -14 40 -15 40 -3 0 6 -8 7 -17 4 -10 -4
-14 -3 -9 1 10 10 96 11 90 1 -2 -4 -13 -5 -24 -3 -11 2 -22 0 -25 -4 -6 -11
56 -6 64 5 8 12 48 11 58 0 4 -5 2 -6 -4 -2 -7 4 -13 2 -13 -3 0 -15 6 -14 35
5 21 14 24 14 34 -3 8 -14 10 -14 11 -3 0 17 55 21 80 5 21 -14 40 -15 40 -3
0 6 -8 7 -17 4 -10 -4 -14 -3 -9 1 10 10 96 11 90 1 -2 -4 -13 -5 -24 -3 -11
2 -22 0 -25 -4 -6 -11 56 -6 64 5 8 12 48 11 58 0 4 -5 2 -6 -4 -2 -7 4 -13 2
-13 -3 0 -15 6 -14 35 5 21 14 24 14 34 -3 8 -14 10 -14 11 -3 0 17 55 21 80
5 21 -14 40 -15 40 -3 0 6 -8 7 -17 4 -10 -4 -14 -3 -9 1 10 10 96 11 90 1 -2
-4 -13 -5 -24 -3 -11 2 -22 0 -25 -4 -6 -11 56 -6 64 5 8 12 48 11 58 0 4 -5
2 -6 -4 -2 -7 4 -13 2 -13 -3 0 -15 6 -14 35 5 21 14 24 14 34 -3 8 -14 10
-15 11 -3 0 20 48 19 61 -1 5 -8 9 -9 9 -3 0 17 28 25 36 12 4 -6 3 -8 -4 -4
-6 3 -14 1 -18 -6 -4 -7 -4 -10 1 -6 4 4 14 3 22 -4 8 -6 13 -7 12 -2 -4 22 3
30 26 29 14 -1 28 -5 32 -10 5 -4 2 -5 -4 -1 -7 4 -13 2 -13 -3 0 -15 6 -14
35 5 21 14 24 14 34 -3 8 -14 10 -15 11 -3 0 20 48 19 61 -1 5 -8 9 -9 9 -3 0
17 28 25 36 12 4 -6 3 -8 -4 -4 -6 3 -14 1 -18 -6 -4 -7 -4 -10 1 -6 4 4 14 3
22 -4 8 -6 13 -7 12 -2 -4 22 3 30 26 29 14 -1 28 -5 32 -10 5 -4 2 -5 -4 -1
-7 4 -13 2 -13 -3 0 -15 6 -14 35 5 21 14 24 14 34 -3 8 -14 10 -15 11 -3 0
20 48 19 61 -1 5 -8 9 -9 9 -3 0 17 28 25 36 12 4 -6 3 -8 -4 -4 -6 3 -14 1
-18 -6 -4 -7 -4 -10 1 -6 4 4 14 3 22 -4 8 -6 13 -7 12 -2 -4 22 3 30 26 29
14 -1 28 -5 32 -10 5 -4 2 -5 -4 -1 -7 4 -13 2 -13 -4 0 -7 7 -9 16 -6 9 4 24
1 33 -6 9 -8 8 -3 -4 11 l-20 24 21 -11 c15 -8 24 -8 32 0 8 8 10 4 6 -13 -2
-13 -1 -18 2 -11 5 10 9 10 22 0 14 -10 15 -10 5 2 -17 18 -16 27 2 27 8 0 12
-4 9 -8 -2 -4 0 -10 6 -14 5 -3 10 1 10 9 0 21 8 20 50 -5 l35 -21 -20 22 -20
23 21 -11 c15 -8 24 -8 32 0 8 8 10 4 6 -13 -2 -13 -1 -18 2 -11 5 10 9 10 22
0 14 -10 15 -10 5 2 -17 18 -16 27 2 27 8 0 12 -4 9 -8 -2 -4 0 -10 6 -14 5
-3 10 1 10 9 0 18 8 20 30 6 9 -5 19 -5 26 1 9 7 16 5 23 -8 6 -10 11 -13 11
-7 0 17 28 25 36 12 4 -6 3 -8 -4 -4 -6 3 -14 1 -18 -6 -4 -7 -4 -10 1 -6 4 4
14 3 22 -4 8 -6 13 -7 12 -2 -4 22 3 30 26 29 14 -1 28 -5 32 -10 5 -4 2 -5
-4 -1 -7 4 -13 2 -13 -3 0 -15 6 -14 35 5 21 14 24 14 34 -3 8 -14 10 -15 11
-3 0 20 48 19 61 -1 5 -8 9 -9 9 -3 0 17 28 25 36 12 4 -6 3 -8 -4 -4 -6 3
-14 1 -18 -6 -4 -7 -4 -10 1 -6 4 4 14 3 22 -4 8 -6 13 -7 12 -2 -4 22 3 30
26 29 14 -1 28 -5 32 -10 5 -4 2 -5 -4 -1 -7 4 -13 2 -13 -3 0 -15 6 -14 35 5
21 14 24 14 34 -3 8 -14 10 -15 11 -3 0 19 48 19 60 1 6 -11 8 -11 12 -1 2 7
22 14 43 15 34 1 40 5 39 23 0 11 3 19 7 17 4 -3 10 2 13 11 8 21 8 26 -2 20
-5 -3 -9 1 -9 9 0 18 9 19 27 3 8 -7 4 0 -10 16 l-25 29 25 -12 25 -12 -24 20
c-22 20 -20 26 4 21 6 -1 4 4 -2 11 -14 14 -55 20 -47 7 3 -4 -83 -8 -190 -8
-194 0 -195 0 -191 21 3 12 1 18 -3 15 -4 -4 -7 -13 -7 -19 0 -9 -198 -13
-797 -15 l-797 -2 4 21 c3 12 1 18 -3 15 -4 -4 -7 -13 -7 -19 0 -9 -84 -13
-317 -15 -313 -2 -317 -2 -313 18 3 17 -2 30 -6 15z"/>
<path d="M3960 4076 c0 -2 8 -10 18 -17 15 -13 16 -12 3 4 -13 16 -21 21 -21
13z"/>
<path d="M4095 4071 c-3 -5 -2 -12 3 -15 5 -3 9 1 9 9 0 17 -3 19 -12 6z"/>
<path d="M4280 4076 c0 -2 8 -10 18 -17 15 -13 16 -12 3 4 -13 16 -21 21 -21
13z"/>
<path d="M4415 4071 c-3 -5 -2 -12 3 -15 5 -3 9 1 9 9 0 17 -3 19 -12 6z"/>
<path d="M5425 3919 c-11 -16 -1 -19 13 -3 7 8 8 14 3 14 -5 0 -13 -5 -16 -11z"/>
<path d="M2240 3876 c0 -2 8 -10 18 -17 15 -13 16 -12 3 4 -13 16 -21 21 -21
13z"/>
<path d="M2590 3865 c0 -8 4 -15 10 -15 5 0 7 7 4 15 -4 8 -8 15 -10 15 -2 0
-4 -7 -4 -15z"/>
<path d="M2815 3870 c-3 -5 -1 -10 4 -10 6 0 11 5 11 10 0 6 -2 10 -4 10 -3 0
-8 -4 -11 -10z"/>
<path d="M2880 3870 c-8 -5 -12 -12 -9 -15 4 -3 12 1 19 10 14 17 11 19 -10 5z"/>
<path d="M2910 3865 c0 -8 4 -15 10 -15 5 0 7 7 4 15 -4 8 -8 15 -10 15 -2 0
-4 -7 -4 -15z"/>
<path d="M3135 3870 c-3 -5 -1 -10 4 -10 6 0 11 5 11 10 0 6 -2 10 -4 10 -3 0
-8 -4 -11 -10z"/>
<path d="M3200 3870 c-8 -5 -12 -12 -9 -15 4 -3 12 1 19 10 14 17 11 19 -10 5z"/>
<path d="M3230 3865 c0 -8 4 -15 10 -15 5 0 7 7 4 15 -4 8 -8 15 -10 15 -2 0
-4 -7 -4 -15z"/>
<path d="M3455 3870 c-3 -5 -1 -10 4 -10 6 0 11 5 11 10 0 6 -2 10 -4 10 -3 0
-8 -4 -11 -10z"/>
<path d="M3520 3870 c-8 -5 -12 -12 -9 -15 4 -3 12 1 19 10 14 17 11 19 -10 5z"/>
<path d="M3550 3865 c0 -8 4 -15 10 -15 5 0 7 7 4 15 -4 8 -8 15 -10 15 -2 0
-4 -7 -4 -15z"/>
<path d="M3775 3870 c-3 -5 -1 -10 4 -10 6 0 11 5 11 10 0 6 -2 10 -4 10 -3 0
-8 -4 -11 -10z"/>
<path d="M4015 3870 c-3 -5 -1 -10 4 -10 6 0 11 5 11 10 0 6 -2 10 -4 10 -3 0
-8 -4 -11 -10z"/>
<path d="M4255 3870 c-3 -5 -1 -10 4 -10 6 0 11 5 11 10 0 6 -2 10 -4 10 -3 0
-8 -4 -11 -10z"/>
<path d="M4975 3870 c-3 -5 -1 -10 4 -10 6 0 11 5 11 10 0 6 -2 10 -4 10 -3 0
-8 -4 -11 -10z"/>
<path d="M5215 3870 c-3 -5 -1 -10 4 -10 6 0 11 5 11 10 0 6 -2 10 -4 10 -3 0
-8 -4 -11 -10z"/>
<path d="M5335 3870 c-2 -3 5 -6 15 -7 11 -1 22 2 24 5 3 4 -4 8 -15 8 -11 0
-22 -3 -24 -6z"/>
<path d="M2396 3557 c3 -10 9 -15 12 -12 3 3 0 11 -7 18 -10 9 -11 8 -5 -6z"/>
<path d="M4076 3557 c3 -10 9 -15 12 -12 3 3 0 11 -7 18 -10 9 -11 8 -5 -6z"/>
<path d="M4316 3557 c3 -10 9 -15 12 -12 3 3 0 11 -7 18 -10 9 -11 8 -5 -6z"/>
<path d="M4556 3557 c3 -10 9 -15 12 -12 3 3 0 11 -7 18 -10 9 -11 8 -5 -6z"/>
<path d="M4796 3557 c3 -10 9 -15 12 -12 3 3 0 11 -7 18 -10 9 -11 8 -5 -6z"/>
<path d="M5036 3557 c3 -10 9 -15 12 -12 3 3 0 11 -7 18 -10 9 -11 8 -5 -6z"/>
<path d="M5276 3557 c3 -10 9 -15 12 -12 3 3 0 11 -7 18 -10 9 -11 8 -5 -6z"/>
<path d="M5395 3561 c-3 -5 -2 -12 3 -15 5 -3 9 1 9 9 0 17 -3 19 -12 6z"/>
<path d="M2240 3550 c-9 -6 -10 -10 -3 -10 6 0 15 5 18 10 8 12 4 12 -15 0z"/>
<path d="M2453 3544 c12 -18 0 -20 -88 -19 -63 1 -79 5 -77 16 2 11 -1 10 -10
-2 -9 -10 -29 -15 -64 -14 -48 1 -52 -1 -49 -22 2 -17 -1 -21 -10 -13 -12 10
-12 9 -2 -60 1 -8 8 -25 15 -37 11 -20 10 -22 -5 -17 -15 5 -16 4 -3 -5 8 -6
24 -11 36 -11 11 0 25 -5 31 -11 8 -8 13 -8 17 0 4 6 16 11 27 11 13 0 18 4
13 12 -4 7 -3 8 4 4 6 -4 10 -12 8 -19 -1 -7 -1 -9 1 -4 3 4 10 4 16 0 6 -4 8
0 4 10 -4 11 -2 14 8 11 8 -3 13 -9 12 -12 -1 -4 3 -8 8 -9 6 -2 10 1 10 6 0
5 4 13 9 18 5 5 6 3 2 -4 -4 -7 -2 -13 4 -13 6 0 8 -5 4 -12 -6 -10 -4 -10 7
-2 16 12 29 12 48 0 10 -6 12 -5 7 2 -10 16 6 15 24 0 12 -11 12 -10 2 3 -10
14 -10 18 2 22 9 4 18 1 22 -5 5 -7 2 -8 -6 -3 -9 5 -11 4 -6 -4 4 -6 11 -9
16 -6 4 3 10 2 13 -2 2 -5 2 -3 1 4 -2 7 2 15 8 19 6 4 9 3 6 -2 -3 -5 1 -16
10 -24 14 -13 15 -12 10 2 -4 9 -1 18 6 21 14 5 38 -6 37 -17 -1 -3 2 -6 7 -6
4 0 7 4 7 9 0 5 4 13 9 18 5 5 6 3 2 -4 -4 -7 -2 -13 4 -13 6 0 8 -5 4 -12 -5
-9 -2 -9 9 1 14 11 20 11 34 0 11 -10 14 -10 9 -1 -4 7 -2 12 4 12 6 0 8 6 4
13 -4 7 -3 9 2 4 5 -5 9 -13 9 -18 0 -8 7 -11 20 -8 3 1 10 3 15 4 6 1 19 3
31 4 12 1 17 5 13 13 -4 7 -3 8 4 4 6 -4 10 -12 8 -19 -1 -7 -1 -9 1 -4 3 4
10 4 16 0 6 -4 8 0 4 10 -4 11 -2 14 8 11 8 -3 13 -9 12 -12 -1 -4 3 -8 8 -9
6 -2 10 1 10 6 0 5 4 13 9 18 5 5 6 3 2 -4 -4 -7 -2 -13 4 -13 6 0 8 -6 4 -12
-4 -7 2 -5 13 5 20 18 35 22 31 10 -2 -5 2 -9 7 -10 6 -2 10 1 10 6 0 5 4 13
9 18 5 5 6 3 2 -4 -4 -7 -2 -13 4 -13 6 0 8 -5 4 -12 -5 -9 -2 -9 9 1 14 11
20 11 34 0 11 -10 14 -10 9 -1 -4 7 -2 12 4 12 6 0 8 6 4 13 -4 7 -3 9 2 4 5
-5 10 -13 10 -18 1 -5 2 -12 3 -15 0 -4 8 0 18 7 9 8 18 13 20 12 1 -2 12 -3
24 -3 13 0 18 4 13 12 -4 7 -3 8 4 4 6 -4 10 -12 8 -19 -1 -7 -1 -9 1 -4 3 4
10 4 16 0 6 -4 8 0 4 10 -4 11 -2 14 8 11 8 -3 13 -9 12 -12 -1 -4 3 -8 8 -9
6 -2 10 1 10 6 0 5 4 13 9 18 5 5 6 3 2 -4 -4 -7 -2 -13 4 -13 6 0 8 -6 4 -12
-4 -7 2 -5 13 5 20 18 35 22 31 10 -2 -5 2 -9 7 -10 6 -2 10 1 10 6 0 5 4 13
9 18 5 5 6 3 2 -4 -4 -7 -2 -13 4 -13 6 0 8 -5 4 -12 -5 -9 -2 -9 9 1 14 11
20 11 34 0 11 -10 14 -10 9 -1 -4 7 -2 12 4 12 6 0 8 6 4 13 -4 7 -3 9 2 4 5
-5 9 -13 9 -18 0 -8 7 -11 20 -8 3 1 10 3 15 4 6 1 19 3 31 4 12 1 17 5 13 13
-4 7 -3 8 4 4 6 -4 10 -12 8 -19 -1 -7 -1 -9 1 -4 3 4 10 4 16 0 6 -4 8 0 4
10 -4 11 -2 14 8 11 8 -3 13 -10 12 -14 -1 -4 3 -8 8 -9 6 -1 10 3 10 8 0 5 4
13 9 18 5 5 6 3 2 -4 -4 -7 -2 -13 4 -13 6 0 8 -6 4 -12 -4 -7 2 -5 13 5 21
19 34 22 30 8 -1 -5 3 -9 8 -10 6 -1 10 3 10 8 0 5 4 13 9 18 5 5 6 3 2 -4 -4
-7 -2 -13 4 -13 6 0 8 -5 4 -12 -5 -9 -2 -9 9 1 14 11 20 11 34 0 11 -10 14
-10 9 -1 -4 7 -2 12 4 12 6 0 8 6 4 13 -4 7 -3 9 2 4 5 -5 9 -13 9 -18 0 -8 7
-11 20 -8 3 1 10 3 15 4 6 1 19 3 31 4 12 1 17 5 13 13 -4 7 -3 8 4 4 6 -4 10
-12 8 -19 -1 -7 -1 -9 1 -4 3 4 10 4 16 0 6 -4 8 0 4 10 -4 11 -2 14 8 11 8
-3 13 -10 12 -14 -1 -4 3 -8 8 -9 6 -1 10 3 10 8 0 5 4 13 9 18 5 5 6 3 2 -4
-4 -7 -2 -13 4 -13 6 0 8 -5 4 -12 -6 -10 -4 -10 7 -2 16 12 29 12 48 0 10 -6
12 -5 7 2 -10 16 6 15 24 0 12 -11 12 -10 2 3 -10 14 -10 18 2 22 9 4 18 1 22
-5 5 -7 2 -8 -6 -3 -9 5 -11 4 -6 -4 4 -6 11 -9 16 -6 4 3 10 2 13 -2 2 -5 2
-3 1 4 -2 7 2 15 8 19 6 4 9 3 6 -2 -3 -5 1 -16 10 -24 14 -13 15 -12 10 2 -4
9 -1 18 6 21 14 5 38 -6 37 -17 -1 -3 2 -6 7 -6 4 0 7 4 7 9 0 5 4 13 9 18 5
5 6 3 2 -4 -4 -7 -2 -13 4 -13 6 0 8 -5 4 -12 -5 -9 -2 -9 9 1 14 11 20 11 34
0 11 -10 14 -10 9 -1 -4 7 -2 12 4 12 6 0 8 6 4 13 -4 7 -3 9 2 4 5 -5 9 -13
9 -18 0 -8 7 -11 20 -8 3 1 10 3 15 4 6 1 19 3 31 4 12 1 17 5 13 13 -4 7 -3
8 4 4 6 -4 10 -12 8 -19 -1 -7 -1 -9 1 -4 3 4 10 4 16 0 6 -4 8 0 4 10 -4 11
-2 14 8 11 8 -3 13 -9 12 -12 -1 -4 3 -8 8 -9 6 -2 10 1 10 6 0 5 4 13 9 18 5
5 6 3 2 -4 -4 -7 -2 -13 4 -13 6 0 8 -5 4 -12 -5 -8 0 -7 11 2 19 16 21 16 44
-3 12 -9 13 -9 7 1 -4 6 -3 12 1 12 5 0 15 -6 23 -12 12 -11 12 -10 2 3 -10
14 -10 18 2 22 9 4 18 1 22 -5 5 -7 2 -8 -6 -3 -9 5 -11 4 -6 -4 4 -6 11 -9
16 -6 4 3 10 2 13 -2 2 -5 2 -3 1 4 -2 7 2 15 8 19 6 4 9 3 6 -2 -3 -5 1 -16
10 -24 14 -13 15 -12 10 2 -8 20 20 34 36 18 8 -8 6 -9 -6 -5 -11 5 -18 2 -18
-6 0 -7 3 -9 7 -6 3 4 13 1 21 -6 13 -9 14 -9 8 1 -4 7 -2 12 4 12 6 0 8 5 4
12 -4 7 -3 8 5 4 6 -4 8 -12 5 -18 -4 -6 -2 -8 4 -4 5 3 13 0 15 -6 4 -10 6
-9 6 1 1 11 4 11 18 0 11 -10 14 -10 9 -1 -5 8 0 12 13 12 12 0 21 -6 21 -12
0 -10 2 -10 9 0 12 19 15 19 36 2 11 -9 16 -10 11 -2 -4 7 -2 12 4 12 6 0 8 5
4 12 -4 7 -3 8 5 4 6 -4 8 -12 5 -18 -4 -6 -2 -8 4 -4 5 3 13 0 15 -6 4 -10 6
-9 6 1 1 11 4 11 18 0 11 -10 14 -10 9 -1 -5 8 0 12 14 12 13 0 19 4 14 12 -4
7 -3 8 4 4 6 -4 8 -14 5 -24 -4 -13 -2 -13 10 3 15 20 15 20 38 0 12 -11 19
-14 15 -7 -4 6 -3 12 1 12 5 0 15 -6 23 -12 12 -11 12 -10 2 3 -10 14 -10 18
2 22 9 4 18 1 22 -5 5 -7 2 -8 -6 -3 -9 5 -11 4 -6 -4 4 -6 11 -9 16 -6 4 3
10 2 13 -2 2 -5 2 -3 1 4 -2 7 2 15 8 19 6 4 9 3 6 -2 -3 -5 1 -16 10 -24 14
-13 15 -12 10 2 -4 9 -1 18 6 21 14 5 38 -6 37 -17 -1 -3 2 -6 7 -6 4 0 7 4 7
9 0 5 4 13 9 18 5 5 6 3 2 -4 -4 -7 -2 -13 4 -13 6 0 8 -5 4 -12 -5 -9 -2 -9
9 1 14 11 20 11 34 0 11 -10 14 -10 9 -1 -4 7 -2 12 4 12 6 0 8 6 4 13 -4 7
-3 9 2 4 5 -5 9 -13 9 -18 0 -8 7 -11 20 -8 3 1 10 3 15 4 6 1 19 3 31 4 12 1
17 5 13 13 -4 7 -3 8 4 4 6 -4 10 -12 8 -19 -1 -7 -1 -9 1 -4 3 4 10 4 16 0 6
-4 8 0 4 10 -4 11 -2 14 8 11 8 -3 13 -9 12 -12 -1 -4 3 -8 8 -9 6 -2 10 1 10
6 0 5 4 13 9 18 5 5 6 3 2 -4 -4 -7 -2 -13 4 -13 6 0 8 -5 4 -12 -5 -7 -3 -8
7 -2 20 12 38 14 45 3 3 -6 11 -5 20 2 8 6 23 9 33 6 15 -3 18 -1 14 11 -4 8
-2 13 3 9 19 -12 36 11 38 51 1 39 2 40 21 24 11 -9 14 -10 8 -2 -17 18 -17
33 0 25 6 -4 2 2 -10 13 -29 25 -29 35 -2 27 18 -6 20 -5 9 7 -14 14 -48 17
-68 4 -7 -4 -20 0 -30 11 -9 11 -13 14 -9 7 12 -18 0 -20 -88 -19 -63 1 -79 5
-77 16 1 9 -2 8 -12 -4 -16 -20 -33 -19 -56 3 -8 9 -11 11 -7 4 12 -18 0 -20
-88 -19 -63 1 -79 5 -77 16 1 9 -2 8 -12 -4 -16 -20 -33 -19 -56 3 -8 9 -11
11 -7 4 12 -18 0 -20 -88 -19 -63 1 -79 5 -77 16 1 9 -2 8 -12 -4 -16 -20 -33
-19 -56 3 -8 9 -11 11 -7 4 12 -18 0 -20 -88 -19 -63 1 -79 5 -77 16 1 9 -2 8
-12 -4 -16 -20 -33 -19 -56 3 -8 9 -11 11 -7 4 12 -18 0 -20 -88 -19 -63 1
-79 5 -77 16 1 9 -2 8 -12 -4 -16 -20 -33 -19 -56 3 -8 9 -11 11 -7 4 12 -18
0 -20 -88 -19 -63 1 -79 5 -77 16 2 10 -2 9 -11 -3 -14 -17 -32 -19 -54 -5 -8
5 -13 4 -13 -2 0 -6 -10 -9 -22 -7 -13 2 -22 10 -20 17 1 8 -4 6 -12 -5 -15
-18 -42 -13 -30 6 4 7 2 8 -5 4 -6 -4 -9 -11 -7 -15 3 -3 -4 -7 -14 -7 -10 0
-16 4 -14 8 3 4 0 8 -5 8 -6 0 -11 -5 -11 -11 0 -6 -6 -9 -12 -6 -7 2 -12 10
-10 16 1 7 -2 10 -8 6 -6 -3 -8 -10 -6 -14 3 -3 -4 -7 -14 -7 -10 0 -16 4 -14
8 3 4 0 8 -5 8 -6 0 -11 -5 -11 -11 0 -6 -6 -9 -12 -6 -7 2 -12 10 -10 16 1 7
-2 10 -8 6 -6 -3 -8 -10 -6 -14 3 -3 -4 -7 -14 -7 -10 0 -16 4 -14 8 3 4 0 8
-5 8 -6 0 -11 -5 -11 -11 0 -6 -6 -9 -12 -6 -7 2 -12 10 -10 16 1 7 -2 10 -8
6 -6 -3 -8 -10 -6 -14 3 -3 -4 -7 -14 -7 -10 0 -16 4 -14 8 3 4 0 8 -5 8 -6 0
-11 -5 -11 -11 0 -6 -6 -9 -12 -6 -7 2 -12 10 -10 16 1 7 -2 10 -8 6 -6 -3 -8
-10 -6 -14 3 -3 -4 -7 -14 -7 -10 0 -16 4 -14 8 3 4 0 8 -5 8 -6 0 -11 -5 -11
-11 0 -6 -6 -9 -12 -6 -7 2 -12 10 -10 16 1 7 -2 10 -8 6 -6 -3 -8 -10 -6 -14
3 -3 -4 -7 -14 -7 -10 0 -16 4 -14 8 3 4 0 8 -5 8 -6 0 -11 -5 -11 -11 0 -6
-6 -9 -12 -6 -7 2 -12 10 -10 16 1 7 -2 10 -8 6 -6 -3 -8 -10 -6 -14 3 -3 -4
-7 -14 -7 -10 0 -16 4 -14 8 3 4 0 8 -5 8 -6 0 -11 -5 -11 -11 0 -6 -6 -9 -12
-6 -7 2 -12 10 -10 16 1 7 -2 10 -8 6 -6 -3 -8 -10 -6 -14 3 -3 -4 -7 -14 -7
-10 0 -16 4 -14 8 3 4 0 8 -5 8 -6 0 -11 -5 -11 -11 0 -6 -6 -9 -12 -6 -7 2
-12 10 -10 16 1 7 -2 10 -8 6 -6 -3 -8 -10 -6 -14 3 -3 -4 -7 -14 -7 -10 0
-16 4 -14 8 3 4 0 8 -5 8 -6 0 -11 -5 -11 -11 0 -6 -6 -9 -12 -6 -7 2 -12 10
-10 16 1 7 -2 10 -8 6 -6 -3 -8 -10 -6 -14 3 -3 -4 -7 -14 -7 -10 0 -16 4 -14
8 3 4 0 8 -5 8 -6 0 -11 -5 -11 -11 0 -6 -6 -9 -12 -6 -7 2 -12 10 -10 16 1 7
-2 10 -8 6 -6 -3 -8 -10 -6 -14 3 -3 -4 -7 -14 -7 -10 0 -16 4 -14 8 3 4 0 8
-5 8 -6 0 -11 -5 -11 -11 0 -6 -6 -9 -12 -6 -7 2 -12 10 -10 16 1 7 -2 10 -8
6 -6 -3 -8 -10 -6 -14 3 -3 -4 -7 -14 -7 -10 0 -16 4 -14 8 3 4 0 8 -5 8 -6 0
-11 -5 -11 -11 0 -6 -6 -9 -12 -6 -7 2 -12 10 -10 16 1 7 -2 10 -8 6 -6 -3 -8
-10 -6 -14 3 -3 -4 -7 -14 -7 -10 0 -16 4 -14 8 3 4 0 8 -5 8 -6 0 -11 -5 -11
-11 0 -6 -6 -9 -12 -6 -7 2 -12 10 -10 16 1 7 -2 10 -8 6 -6 -3 -8 -10 -6 -14
3 -3 -4 -7 -14 -7 -10 0 -16 4 -14 8 3 4 0 8 -5 8 -6 0 -11 -5 -11 -11 0 -6
-6 -9 -12 -6 -7 2 -12 10 -10 16 1 7 -2 10 -8 6 -6 -3 -8 -10 -6 -14 3 -3 -4
-7 -14 -7 -10 0 -16 4 -14 8 3 4 0 8 -5 8 -6 0 -11 -5 -11 -11 0 -6 -6 -9 -12
-6 -7 2 -12 10 -10 16 1 7 -2 10 -8 6 -6 -3 -7 -11 -4 -17 4 -6 -3 -5 -16 2
-15 8 -20 8 -16 1 5 -7 -1 -10 -16 -7 -13 2 -22 10 -20 17 1 9 -3 7 -12 -4
-16 -20 -33 -19 -56 3 -8 9 -11 11 -7 4z m-203 -173 c0 -6 -4 -13 -10 -16 -5
-3 -10 1 -10 9 0 9 5 16 10 16 6 0 10 -4 10 -9z m480 -3 c0 -6 -3 -8 -7 -5 -3
4 -13 1 -22 -6 -14 -11 -14 -10 -2 6 15 20 31 22 31 5z m320 0 c0 -6 -3 -8 -7
-5 -3 4 -13 1 -22 -6 -14 -11 -14 -10 -2 6 15 20 31 22 31 5z m320 0 c0 -6 -3
-8 -7 -5 -3 4 -13 1 -22 -6 -14 -11 -14 -10 -2 6 15 20 31 22 31 5z m320 0 c0
-6 -3 -8 -7 -5 -3 4 -13 1 -22 -6 -14 -11 -14 -10 -2 6 15 20 31 22 31 5z
m480 0 c0 -6 -3 -8 -7 -5 -3 4 -13 1 -22 -6 -14 -11 -14 -10 -2 6 15 20 31 22
31 5z m400 4 c0 -5 -7 -9 -15 -9 -8 0 -12 4 -9 9 3 4 9 8 15 8 5 0 9 -4 9 -8z
m84 0 c3 -5 -1 -9 -9 -9 -8 0 -12 4 -9 9 3 4 7 8 9 8 2 0 6 -4 9 -8z m76 0 c0
-5 -7 -9 -15 -9 -8 0 -12 4 -9 9 3 4 9 8 15 8 5 0 9 -4 9 -8z m400 -4 c0 -6
-3 -8 -7 -5 -3 4 -13 1 -22 -6 -14 -11 -14 -10 -2 6 15 20 31 22 31 5z m200 4
c0 -13 -12 -22 -22 -16 -10 6 -1 24 13 24 5 0 9 -4 9 -8z"/>
<path d="M3919 3543 c-13 -16 -12 -17 4 -4 16 13 21 21 13 21 -2 0 -10 -8 -17
-17z"/>
<path d="M5420 3433 c0 -6 8 -17 18 -24 16 -13 16 -13 2 6 -8 11 -16 22 -17
24 -2 2 -3 0 -3 -6z"/>
<path d="M4894 2931 c3 -5 -4 -9 -17 -9 -32 -2 -49 -6 -74 -20 -13 -7 -23 -9
-23 -5 0 4 -4 4 -8 -2 -16 -22 -92 -75 -107 -75 -9 0 -14 -4 -11 -9 8 -12 -21
-34 -33 -26 -7 4 -8 -1 -4 -12 3 -10 2 -15 -2 -11 -5 5 -14 -1 -22 -12 -8 -11
-21 -20 -29 -20 -8 0 -14 -5 -14 -11 0 -6 -7 -9 -14 -6 -10 4 -13 1 -10 -8 6
-15 -29 -39 -40 -27 -4 3 -4 -1 -1 -10 7 -17 -26 -43 -39 -31 -3 3 -6 1 -6 -6
0 -17 -51 -71 -67 -71 -7 0 -17 -9 -23 -20 -6 -11 -21 -30 -34 -44 -19 -18
-27 -21 -37 -12 -9 8 -10 8 -5 -1 10 -18 -50 -74 -72 -67 -13 5 -14 4 -3 -4
12 -8 11 -14 -6 -35 -16 -20 -23 -23 -32 -14 -7 7 -11 8 -10 2 5 -16 -12 -55
-23 -55 -6 0 -5 7 3 18 13 15 12 16 -3 3 -10 -7 -16 -17 -13 -21 3 -5 -4 -15
-15 -23 -11 -7 -17 -17 -13 -20 6 -7 -18 -11 -47 -8 -13 2 -13 1 0 -8 8 -5 19
-7 25 -4 5 2 -9 -13 -31 -35 -23 -23 -39 -44 -35 -48 3 -4 0 -4 -6 0 -8 4 -13
1 -13 -8 0 -9 -6 -15 -12 -13 -7 1 -12 -4 -11 -10 3 -12 -10 -17 -30 -14 -5 1
-6 -3 -2 -9 9 -15 -27 -58 -44 -52 -10 3 -12 0 -8 -12 5 -12 -1 -20 -19 -28
-16 -8 -23 -17 -19 -27 3 -8 3 -12 -1 -9 -4 4 -16 -4 -26 -18 -14 -18 -26 -23
-42 -19 -18 5 -19 5 -4 -5 16 -10 15 -14 -13 -44 -16 -19 -37 -42 -45 -52 -9
-11 -12 -13 -9 -6 6 11 3 12 -14 3 -11 -7 -21 -14 -21 -17 0 -3 5 -2 11 2 7 4
10 1 7 -7 -3 -8 -12 -13 -21 -13 -9 1 -15 -2 -12 -6 9 -14 -7 -41 -21 -36 -9
3 -11 0 -7 -11 5 -13 2 -15 -15 -11 -12 3 -21 3 -20 -1 1 -3 -4 -17 -11 -30
-11 -19 -11 -22 1 -16 10 6 10 5 -1 -6 -10 -11 -15 -11 -18 -1 -3 6 -9 12 -15
12 -6 0 -6 -6 2 -15 10 -12 9 -20 -5 -41 -17 -27 -30 -25 -30 4 0 9 -10 21
-23 28 -34 17 -40 27 -12 20 14 -3 19 -3 12 0 -6 3 -10 10 -7 14 3 5 -3 7 -13
5 -9 -1 -24 2 -32 9 -21 16 -48 52 -32 42 6 -4 12 -2 12 3 0 6 -4 12 -10 12
-5 1 -16 2 -22 3 -7 1 -12 7 -10 14 1 7 3 17 5 23 1 6 -5 14 -13 16 -12 4 -12
3 -1 -5 8 -6 9 -12 3 -16 -15 -9 -22 20 -9 33 7 7 8 12 2 11 -22 -5 -45 1 -45
10 0 5 6 8 13 6 6 -1 9 -1 4 1 -4 3 -5 9 -1 14 6 11 -18 8 -26 -3 -3 -4 -12 3
-19 15 -13 20 -13 21 1 9 13 -10 17 -10 21 3 4 8 3 14 -1 14 -21 -3 -32 3 -32
17 0 11 -5 14 -17 9 -15 -5 -16 -4 -5 7 11 11 16 10 28 -6 8 -11 14 -15 14
-10 0 16 -22 34 -42 34 -21 0 -25 35 -5 44 6 3 2 3 -10 0 -17 -4 -23 -1 -23
11 0 10 5 13 12 9 7 -4 8 -3 4 5 -6 9 -11 9 -22 0 -15 -12 -16 -9 -17 38 0 13
-4 20 -10 16 -6 -4 -8 0 -4 10 3 9 2 19 -4 22 -5 4 -6 11 -3 17 4 7 2 8 -4 4
-10 -6 -17 11 -14 36 1 3 -5 9 -14 12 -8 3 -12 1 -9 -4 3 -6 -1 -7 -10 -4 -14
6 -14 8 2 21 16 13 16 14 1 9 -12 -3 -16 0 -13 14 2 10 -4 25 -13 32 -12 10
-14 10 -8 1 4 -9 1 -13 -9 -13 -11 0 -15 5 -11 16 3 8 2 12 -4 9 -6 -3 -10 -2
-10 2 0 13 -39 13 -46 1 -4 -6 -2 -8 4 -5 13 9 42 -2 42 -15 0 -7 -4 -7 -12
-1 -23 18 -94 6 -155 -25 -34 -17 -64 -28 -69 -24 -4 4 -4 -1 -1 -10 4 -10 2
-18 -3 -18 -15 0 -69 -57 -62 -66 4 -4 1 -4 -5 0 -7 4 -13 2 -13 -4 0 -6 -4
-9 -9 -6 -13 9 -29 -16 -26 -42 1 -17 -2 -21 -14 -17 -8 3 -12 3 -8 -1 4 -4
-1 -16 -10 -26 -15 -17 -15 -20 -3 -28 13 -9 7 -14 -12 -11 -4 0 -5 -6 -2 -14
4 -8 11 -12 18 -9 6 3 3 -1 -6 -9 -10 -8 -18 -17 -18 -20 0 -4 8 -4 18 -1 11
4 9 -1 -8 -16 -14 -12 -19 -18 -11 -14 11 5 13 3 8 -9 -4 -12 -1 -17 11 -18
11 -1 8 -4 -8 -9 -24 -8 -24 -8 -3 -9 16 -1 21 -6 16 -16 -3 -9 3 -23 13 -31
11 -9 14 -13 9 -10 -6 2 -11 -3 -11 -13 0 -13 6 -17 21 -13 20 4 20 4 0 -11
l-20 -16 20 2 c16 2 19 -3 17 -22 -2 -15 0 -21 7 -17 7 4 11 -1 11 -13 0 -11
4 -23 10 -26 6 -4 7 1 4 12 -4 13 -3 14 4 5 5 -8 8 -26 6 -40 -3 -26 -2 -26
12 -7 13 18 14 17 8 -12 -6 -29 -4 -32 15 -28 19 3 20 1 10 -17 -7 -13 -7 -18
-1 -14 6 3 13 -3 17 -14 3 -11 12 -20 18 -20 7 0 6 -4 -3 -10 -13 -8 -12 -10
3 -10 9 0 17 -4 17 -10 0 -5 9 -10 19 -10 11 0 22 -4 25 -9 3 -4 -7 -6 -22 -4
l-27 4 28 -16 c15 -9 27 -20 27 -25 0 -19 2 -25 12 -37 5 -6 16 -9 24 -6 8 3
14 2 13 -3 -4 -23 2 -36 15 -31 10 4 12 0 8 -16 -5 -20 -4 -21 12 -8 9 8 19
11 23 7 3 -3 2 -6 -4 -6 -6 0 -13 -7 -17 -15 -3 -8 -2 -14 2 -14 21 3 31 -3
26 -15 -4 -11 2 -14 22 -11 25 2 26 1 10 -10 -16 -12 -16 -14 3 -20 12 -3 19
-11 16 -16 -4 -5 4 -9 17 -9 18 0 20 -2 8 -10 -13 -8 -12 -10 4 -10 12 0 16
-5 12 -16 -3 -8 -2 -12 3 -9 5 3 12 -4 16 -15 3 -11 12 -19 18 -17 7 1 10 -5
9 -13 -2 -8 -1 -12 3 -9 11 12 64 -51 59 -69 -5 -14 -4 -14 4 -3 8 11 17 7 46
-25 24 -26 35 -32 31 -19 -5 15 -3 14 8 -4 9 -15 17 -20 21 -12 4 6 13 11 19
11 7 0 6 -4 -3 -10 -12 -8 -11 -10 5 -10 12 0 26 -5 31 -10 7 -7 11 -6 11 4 0
8 -4 13 -9 10 -4 -3 -8 -1 -8 5 0 5 9 9 19 8 11 0 18 -4 16 -7 -2 -4 2 -7 10
-7 8 0 12 4 9 8 -2 4 0 10 6 14 5 3 10 0 11 -7 0 -7 4 -4 9 7 5 11 9 14 9 7 1
-11 3 -11 15 0 7 7 24 20 37 28 12 8 41 32 64 52 23 21 44 37 46 35 2 -1 3 0
2 2 -1 2 25 36 59 75 144 167 165 191 196 224 17 18 32 37 32 41 0 3 16 21 35
40 19 18 35 37 35 43 0 6 7 8 14 5 9 -4 13 -1 11 6 -3 7 26 45 64 85 38 41 69
76 70 78 1 4 27 34 121 138 64 72 367 375 425 426 22 20 80 69 130 110 49 41
103 86 119 100 15 14 33 24 38 22 5 -1 6 2 3 8 -4 7 2 21 12 33 22 24 37 57
34 71 -1 5 5 6 13 3 8 -3 19 0 25 7 8 9 7 13 -4 13 -8 0 -11 -5 -8 -11 3 -6 2
-7 -2 -3 -11 10 -16 39 -5 32 12 -7 7 59 -5 67 -6 5 -5 8 4 8 11 0 11 3 0 18
-13 15 -12 16 4 3 9 -8 21 -11 24 -7 4 4 2 11 -6 15 -7 5 -12 11 -12 15 3 20
0 26 -11 20 -8 -5 -9 -2 -5 9 3 10 2 17 -3 17 -6 0 -24 12 -40 27 -17 15 -41
28 -53 30 -12 2 -23 8 -25 13 -2 6 -8 10 -13 10 -6 0 -8 -4 -5 -9z m-1801
-686 c-3 -9 -8 -14 -10 -11 -3 3 -2 9 2 15 9 16 15 13 8 -4z m72 -115 c3 -5 1
-10 -4 -10 -6 0 -11 5 -11 10 0 6 2 10 4 10 3 0 8 -4 11 -10z m-440 -30 c3 -5
-1 -10 -10 -10 -9 0 -13 5 -10 10 3 6 8 10 10 10 2 0 7 -4 10 -10z m-35 -69
c0 -5 -7 -12 -16 -15 -14 -5 -15 -4 -4 9 14 17 20 19 20 6z m910 -311 c0 -5
-5 -10 -11 -10 -5 0 -7 5 -4 10 3 6 8 10 11 10 2 0 4 -4 4 -10z m-105 -68 c-3
-3 -11 0 -18 7 -9 10 -8 11 6 5 10 -3 15 -9 12 -12z m-240 -562 c3 -6 -1 -7
-9 -4 -18 7 -21 14 -7 14 6 0 13 -4 16 -10z m35 -34 c0 -3 -4 -8 -10 -11 -5
-3 -10 -1 -10 4 0 6 5 11 10 11 6 0 10 -2 10 -4z"/>
<path d="M4966 2931 c-3 -4 2 -15 12 -23 27 -24 42 -30 42 -19 0 6 -7 11 -16
11 -8 0 -12 5 -9 10 4 6 1 9 -7 8 -7 -2 -12 3 -10 10 2 14 -4 16 -12 3z"/>
<path d="M4677 2849 c7 -7 15 -10 18 -7 3 3 -2 9 -12 12 -14 6 -15 5 -6 -5z"/>
<path d="M5063 2748 c-11 -19 -12 -37 -3 -43 5 -3 7 3 5 12 -1 10 2 24 8 31 5
6 7 12 4 12 -3 0 -9 -6 -14 -12z"/>
<path d="M5026 2632 c-3 -5 1 -9 9 -9 8 0 12 4 9 9 -3 4 -7 8 -9 8 -2 0 -6 -4
-9 -8z"/>
<path d="M4382 2584 c-7 -8 -8 -14 -3 -14 10 0 25 19 20 25 -2 1 -10 -3 -17
-11z"/>
<path d="M4176 2383 c-6 -14 -5 -15 5 -6 7 7 10 15 7 18 -3 3 -9 -2 -12 -12z"/>
<path d="M1604 2214 c0 -12 4 -20 8 -18 4 3 8 1 8 -5 0 -5 -6 -12 -12 -14 -10
-4 -10 -6 -1 -6 18 -1 26 18 14 33 -7 8 -7 16 0 23 6 6 5 10 -4 10 -7 0 -13
-11 -13 -23z"/>
<path d="M4022 2224 c-7 -8 -8 -14 -3 -14 10 0 25 19 20 25 -2 1 -10 -3 -17
-11z"/>
<path d="M1604 2134 c0 -12 4 -20 8 -18 4 3 8 1 8 -5 0 -5 -6 -12 -12 -14 -10
-4 -10 -6 -1 -6 18 -1 26 18 14 33 -7 8 -7 16 0 23 6 6 5 10 -4 10 -7 0 -13
-11 -13 -23z"/>
<path d="M3890 2088 c0 -4 4 -8 9 -8 6 0 12 4 15 8 3 5 -1 9 -9 9 -8 0 -15 -4
-15 -9z"/>
<path d="M1604 2054 c0 -12 4 -20 8 -18 4 3 8 1 8 -5 0 -5 -6 -12 -12 -14 -10
-4 -10 -6 -1 -6 18 -1 26 18 14 33 -7 8 -7 16 0 23 6 6 5 10 -4 10 -7 0 -13
-11 -13 -23z"/>
<path d="M3787 1989 c7 -7 15 -10 18 -7 3 3 -2 9 -12 12 -14 6 -15 5 -6 -5z"/>
<path d="M3735 1910 c-3 -5 -1 -10 4 -10 6 0 11 5 11 10 0 6 -2 10 -4 10 -3 0
-8 -4 -11 -10z"/>
<path d="M3709 1873 c-13 -16 -12 -17 4 -4 16 13 21 21 13 21 -2 0 -10 -8 -17
-17z"/>
<path d="M3375 1799 c-3 -4 2 -6 10 -5 21 3 28 13 10 13 -9 0 -18 -4 -20 -8z"/>
<path d="M3425 1740 c10 -11 20 -18 23 -16 5 6 -23 36 -34 36 -4 0 1 -9 11
-20z"/>
<path d="M1604 1254 c0 -12 4 -20 8 -18 4 3 8 1 8 -5 0 -5 -6 -12 -12 -14 -10
-4 -10 -6 -1 -6 18 -1 26 18 14 33 -7 8 -7 16 0 23 6 6 5 10 -4 10 -7 0 -13
-11 -13 -23z"/>
<path d="M1604 1174 c0 -12 4 -20 8 -18 4 3 8 1 8 -5 0 -5 -6 -12 -12 -14 -10
-4 -10 -6 -1 -6 18 -1 26 18 14 33 -7 8 -7 16 0 23 6 6 5 10 -4 10 -7 0 -13
-11 -13 -23z"/>
<path d="M1604 1094 c0 -12 4 -20 8 -18 4 3 8 1 8 -5 0 -5 -6 -12 -12 -14 -10
-4 -10 -6 -1 -6 18 -1 26 18 14 33 -7 8 -7 16 0 23 6 6 5 10 -4 10 -7 0 -13
-11 -13 -23z"/>
<path d="M1604 1014 c0 -12 4 -20 8 -18 4 3 8 1 8 -5 0 -5 -6 -12 -12 -14 -10
-4 -10 -6 -1 -6 18 -1 26 18 14 33 -7 8 -7 16 0 23 6 6 5 10 -4 10 -7 0 -13
-11 -13 -23z"/>
<path d="M1604 934 c0 -12 4 -20 8 -18 4 3 8 1 8 -5 0 -5 -6 -12 -12 -14 -10
-4 -10 -6 -1 -6 18 -1 26 18 14 33 -7 8 -7 16 0 23 6 6 5 10 -4 10 -7 0 -13
-11 -13 -23z"/>
<path d="M1604 854 c0 -12 4 -20 8 -18 4 3 8 1 8 -5 0 -5 -6 -12 -12 -14 -10
-4 -10 -6 -1 -6 18 -1 26 18 14 33 -7 8 -7 16 0 23 6 6 5 10 -4 10 -7 0 -13
-11 -13 -23z"/>
<path d="M1604 774 c0 -12 4 -20 8 -18 4 3 8 1 8 -5 0 -5 -6 -12 -12 -14 -10
-4 -10 -6 -1 -6 18 -1 26 18 14 33 -7 8 -7 16 0 23 6 6 5 10 -4 10 -7 0 -13
-11 -13 -23z"/>
<path d="M1607 616 c4 -140 7 -166 16 -166 5 0 5 15 2 33 -12 65 -12 87 -1 87
7 0 8 3 1 8 -12 8 -15 104 -4 112 4 3 1 10 -5 16 -10 9 -12 -12 -9 -90z"/>
<path d="M4075 7390 c-3 -5 -1 -10 4 -10 6 0 11 5 11 10 0 6 -2 10 -4 10 -3 0
-8 -4 -11 -10z"/>
<path d="M2950 7071 c0 -6 4 -13 10 -16 6 -3 7 1 4 9 -7 18 -14 21 -14 7z"/>
<path d="M4297 7063 c3 -7 6 -13 8 -13 2 0 5 6 8 13 3 8 -1 14 -8 14 -7 0 -11
-6 -8 -14z"/>
<path d="M4827 7045 c3 -8 9 -12 14 -9 12 7 11 11 -5 17 -10 4 -13 1 -9 -8z"/>
<path d="M4861 7034 c0 -11 3 -14 6 -6 3 7 2 16 -1 19 -3 4 -6 -2 -5 -13z"/>
<path d="M2585 6949 c-4 -6 -5 -12 -2 -15 2 -3 7 2 10 11 7 17 1 20 -8 4z"/>
<path d="M6036 6932 c-3 -5 1 -9 9 -9 8 0 12 4 9 9 -3 4 -7 8 -9 8 -2 0 -6 -4
-9 -8z"/>
<path d="M6115 6920 c-4 -6 -11 -7 -17 -4 -7 4 -8 2 -4 -5 6 -9 11 -9 22 0 14
11 18 19 10 19 -3 0 -8 -5 -11 -10z"/>
<path d="M1876 6908 c3 -5 10 -6 15 -3 13 9 11 12 -6 12 -8 0 -12 -4 -9 -9z"/>
<path d="M5236 6908 c3 -5 10 -6 15 -3 13 9 11 12 -6 12 -8 0 -12 -4 -9 -9z"/>
<path d="M5716 6908 c3 -5 10 -6 15 -3 13 9 11 12 -6 12 -8 0 -12 -4 -9 -9z"/>
<path d="M6175 6881 c-3 -5 -2 -12 3 -15 5 -3 9 1 9 9 0 17 -3 19 -12 6z"/>
<path d="M6212 6856 c15 -30 16 -30 14 -3 0 13 -6 24 -13 24 -9 0 -9 -6 -1
-21z"/>
</g>
</svg>
